<svg xmlns="http://www.w3.org/2000/svg" width="19.773" height="19.773" viewBox="0 0 19.773 19.773">
  <g id="Group_1963" data-name="Group 1963" transform="translate(-676.5 -853.5)">
    <circle id="Oval" cx="9.387" cy="9.387" r="9.387" transform="translate(695.773 872.773) rotate(180)" fill="none" stroke="#a5a5a5" stroke-width="1"/>
    <g id="noun-dropdown-1197614" transform="translate(690.035 865.401) rotate(180)">
      <path id="Path_5196" data-name="Path 5196" d="M3.345,0a.174.174,0,0,0-.12.048L.054,3.073a.174.174,0,0,0,.241.252L3.345.416,6.451,3.381a.174.174,0,1,0,.241-.252L3.466.048A.174.174,0,0,0,3.345,0Z" transform="translate(0.276 0.276)" fill="#a5a5a5"/>
      <path id="Path_5196_-_Outline" data-name="Path 5196 - Outline" d="M3.621,0A.448.448,0,0,0,3.31.124L.139,3.149a.45.45,0,0,0-.015.637A.45.45,0,0,0,.761,3.8l2.86-2.728L6.537,3.856A.45.45,0,0,0,7.159,3.2L3.932.125A.449.449,0,0,0,3.621,0Z" fill="#a5a5a5"/>
    </g>
  </g>
</svg>
