<svg xmlns="http://www.w3.org/2000/svg" xmlns:xlink="http://www.w3.org/1999/xlink" width="685.026" height="766.314" viewBox="0 0 685.026 766.314">
  <defs>
    <clipPath id="clip-path">
      <rect id="Rectangle_2560" data-name="Rectangle 2560" width="685.026" height="766.314" transform="translate(0 0)" fill="none" stroke="#bfbfbf" stroke-width="1"/>
    </clipPath>
    <clipPath id="clip-path-2">
      <rect id="Rectangle_2610" data-name="Rectangle 2610" width="24.985" height="90.522" transform="translate(0 0)" fill="#e3e3e3"/>
    </clipPath>
    <clipPath id="clip-path-3">
      <rect id="Rectangle_2611" data-name="Rectangle 2611" width="22.458" height="37.693" fill="#e3e3e3"/>
    </clipPath>
  </defs>
  <g id="Group_2017" data-name="Group 2017" transform="translate(-145.302 -323)">
    <g id="Group_1970" data-name="Group 1970" transform="translate(145.302 322.998)">
      <g id="Group_1969" data-name="Group 1969" transform="translate(0 0.002)" clip-path="url(#clip-path)">
        <path id="Path_6387" data-name="Path 6387" d="M131.115,32.368s2.566-1.344,2.723.544.889,3.418,1.361,3.575,1,1.551,2.1,1.551a8.357,8.357,0,0,1,4.194,1.8c.786.787.681,1.843,1.782,1.843a5.836,5.836,0,0,0,2.228-.494c.472-.157,2.215-.326,2.687.461S146.463,44,146.463,44l-.626,1.64s0,2.741.475,2.741h2.2l.944.717a5.469,5.469,0,0,0,1.573.594,6.808,6.808,0,0,1,1.416.3l1.416,1.564.315,4.557-.944,1.256-1.1,1.414-3.3.943-2.989.786-.472,1.481-.314,2.11h-4.089l-1.258,1.822-.944,1.934.158,2.382.786.955.629,1.264-.314,9.125,1.1,2.361-.157,2.989-.158,2.2.315,2.2.157,3.618a57.7,57.7,0,0,0-.472,6.292c.158.944,2.359,4.119,2.359,4.119l2.045,1.445h2.359l1.73,1.229,2.988,2.581,3.775.859,2.989,2.746h2.2l1.766-.2,1.294,1.061v2.2l-.822,1.415.376,1.449,3.049,2.078h5.662l1.416.91,1.416,1.006,1.73.975,1.573,1.745.315,3.468-1.1,1.577-2.2,1.266-2.989.323h-4.089l-2.2,2.2-3.46,1.727-1.73,2.2-.787,2.359-.157,2.2,1.258,1.73.787,1.887-.315,2.045-1.415,1.258-.787.629.157,3.618.157,2.359,1.1.943-1.888,2.045-2.989,2.045-2.989,4.247-3.146,2.2-1.888,2.2-2.2,1.415-1.573,2.674.157,1.888L146,178.948l.314,2.2-1.1,1.73a51.274,51.274,0,0,1-8.179,3.3c-2.831.629-4.876,1.1-5.19,3.3s-2.517,10.381-4.247,12.9-7.078,8.808-7.078,8.808-10.7,5.505-11.325,5.82a12.354,12.354,0,0,0-2.674,3.932,24.1,24.1,0,0,1-1.73,4.247,32.868,32.868,0,0,1-3.146,3.46c-.787.786-2.989,2.517-2.989,2.517l-2.2,1.888a19.474,19.474,0,0,0-.787,2.988,7.025,7.025,0,0,1-1.1,2.2l-2.359.786s-10.224,1.416-10.7,1.573a34.4,34.4,0,0,0-4.4,1.381c-.786.472-4.363,1.853-4.363,1.853H70.185l-1.258-1.223a17.882,17.882,0,0,1-.472-2.5,16.829,16.829,0,0,0-.944-2.98l-1.258-2.355-1.1-1.728-2.359.158-2.831.944-2.2,1.573s-4.247,7.55-5.033,8.651a54.93,54.93,0,0,1-5.662,5.191c-.629.472-3.775,1.573-5.505,4.719s-3.146,8.336-2.674,10.224,3.146,4.247,4.561,4.876,3.618,1.73,5.033,1.416,4.4-1.416,4.876,1.258.787,6.763-1.1,8.808-.944,4.876-.629,6.134,3.3,6.764,5.19,7.55a7.817,7.817,0,0,0,4.089.315s2.359-1.416,2.989-.472,0,10.224,0,10.224l4.4,4.561s-.157,3.46.786,5.348,3.3,7.392,3.3,7.392-2.831.472-2.831,2.359.158,3.618.158,3.618l2.517.944s-.472,1.258-.944,1.416a18.7,18.7,0,0,1-2.989,0l-1.573,1.1-.944,1.416-2.674.786-3.3-1.73-.315-4.4a27.05,27.05,0,0,1-3.932,1.416c-.629,0-6.134-.315-7.393,1.573a17.369,17.369,0,0,0-1.73,3.146l-7.078-.314-3.146-3.46-7.55-.157-1.73,1.457-1.258-1.532H24.1l-1.258.863-1.258.314-.944-2.045-.629-.431-1.573,1.3h-1.1l-1.934-1.81-1.462.785V330.1l.558,6.292s-6.052-.472-6.838-.787-4.171-.786-4.8-.314A20.477,20.477,0,0,0,.89,337.337v1.573l.477,1.258.986.787.965.786L2.7,343.157l-1.428.787L0,344.258v.944l.821.962H4.91l1.573.58-.315,2.374,1.258,2.524,1.258,2.048s1.258,4.878,3.146,6.136,12.583,8.023,12.583,8.023l6.134.89,3.3.261H35.9l1.573-1.244s1.258-1.054,1.73-1.054,2.045-.291,2.045-.291l1.73.169,1.416-.309.786-1.57,1.416-.156,1.258-.471.472-1.887.315-1.573,1.258-.692,1.73-1.006H53.2l1.416,1.1,1.888.388h1.415l1.73-1.483h.944l.472,1.046-.472,1.427-1.416,1.893L56.816,364.7l-1.73.945-.472,1.888L53.2,368.795l-2.2-.472-1.416,1.73-3.618,5.505-5.191.533L38.885,378.2H35.11l-2.517,2.731-2.359-.876-1.416,1.922-2.2-.3-3.932.638-1.573-1.1L21.9,378.7l.787-1.414-1.888-.314-.157-2.831s-2.989,2.045-3.775,4.247-1.416,4.876,2.831,8.651,16.515,18.088,18.088,21.234,8.808,11.8,14.628,14.156,7.078,3.3,8.336,3.3,1.888-1.1,2.831-1.1,3.3,0,3.932-.629,1.73-1.416,2.517-1.258,1.813-.629,2.715-.472,1.846.472,2.318-.944.944-3.146,2.831-2.989,3.3.157,4.561-.629,3.3-.787,4.089-1.1,2.989.158,3.618-1.73a13.672,13.672,0,0,1,2.674-4.561,41.427,41.427,0,0,0,2.831-4.719,9.5,9.5,0,0,0,.629-2.831,38.92,38.92,0,0,0-2.517-4.089l-4.129-.629s-.9-1.73,1.14-1.258a1.751,1.751,0,0,0,2.359-1.258l.157-2.2,2.2-.943.786-2.831,1.73-2.359,1.73-2.517a11.625,11.625,0,0,0,.472,2.831c.315.472,2.2-.157,2.2-.157l2.2-.944,2.831.944s1.416-.472,2.2-.629a4.934,4.934,0,0,1,1.887.157l-.943,2.517-1.258,1.1-1.573-.315-1.73-.786-1.258-.472-1.258.944-.314,1.573v2.045l.511,1.1,1.16.157,1.268-.157.324.472v1.258l-1.061.858h-1.1l-.472,1.419-.786,1.693-.787,1.4s-1.573.777.472.934,2.045.153,2.045.153l1.258-.16,1.73-.316.629.471-.157,1.258-.472,1.1-3.3,2.045.472,1.1,1.258.944-1.258,1.1-.629.629-.157,1.1-.472,1.73.786.944,1.416,1.258.944.944.315,1.258s1.415-.315,1.1,1.1.157,1.1-.315,1.416l-.472.314.157.944.314,1.258.472.944,1.258.472.472,1.182-.472,1.024h-.944a5.06,5.06,0,0,1,0,1.61c-.157.629,0-.335-.157,1.867s0,1.72,0,1.72.787-.792-.629,1.253,0-.632-1.1,1.413-1.1,2.044-1.1,2.044L105.1,438l.157,1.573-.157,1.73-.629,1.573a4.941,4.941,0,0,0-.629,1.887,6.188,6.188,0,0,1-.629,2.045l-1.782.944.892,2.517v2.674l.405,2.359s-.072,1.258.4,1.73a7.163,7.163,0,0,0,2.087.944l.493,1.416-.933.787-.152.629-.155,1.573,1.26.944.654,1.258L105,465.842v.629l.091,1.416.8,1.416v1.887s-.824-.786-.666,1.258-1.473,1.258-.058,1.573,1.387.315,1.387.315l.929-.629s.307.157,1.094-1.573.783-1.73.783-1.73l.942-.157.314,1.258-.158,1.258-1.1,1.258-.315,1.1-.629,1.73-1.575,1.258-.946.944v1.416l.671,1.573s1.083,1.573.768,2.2A7.072,7.072,0,0,0,107,488.02a15.184,15.184,0,0,0,1.411,3.146c.314.629-.474,1.573-.16,2.674s.156,3.932.943,4.561a2.454,2.454,0,0,1,1.1,2.045,8.727,8.727,0,0,0,.943,3.46c.629.944.472,1.416.472,3.146s-.629,2.359.157,2.988.629,2.831.629,2.831a3.745,3.745,0,0,0-.157,3.46c.944,1.573,2.045,3.932,2.045,3.932s-.944,5.348-.157,7.707.472,2.988.786,4.876a34.21,34.21,0,0,1,.315,4.561,18.508,18.508,0,0,0-.157,5.662c.472,2.2,2.2,2.517,2.359,3.932s-.157,1.73.315,3.3a4.534,4.534,0,0,0,1.573,2.674c.944.944,1.258.944,1.73,1.888a13.85,13.85,0,0,1,.787,2.988l.629,2.2a5.887,5.887,0,0,1,1.573,3.146c.157,1.73.315,4.089,1.1,5.191s.629,1.258,1.415,2.517,1.258.629,1.258,2.359-.787,2.831.472,3.932,3.146,2.831,3.146,2.831a3.473,3.473,0,0,1,1.573,1.573c.315.944-.472.786.157,1.73s.472,1.416,1.416,1.888l2.2,1.1s.472,1.73.629,2.517-.315.629.786,1.416,1.258,0,1.573.944a12.165,12.165,0,0,1,.315,2.831,7.136,7.136,0,0,0,0,4.561,24.124,24.124,0,0,1,1.1,4.4c.157,1.416.787,1.416,1.416,2.517a21.054,21.054,0,0,1,1.258,2.988,12.932,12.932,0,0,0,.472,3.618,13.418,13.418,0,0,1,1.153,2.831,14.884,14.884,0,0,1,.051,2.674V620.3l.3,3.46,1.606,5.033.488,2.988,1.267,3.617,1.263,4.562a26.285,26.285,0,0,1,1.889,5.19c.944,3.46,2.832,6.606,3.462,8.808s.315,2.516,2.517,4.561,1.1,2.517,3.146,4.4a13.532,13.532,0,0,1,2.989,3.46c1.1,1.573.787,1.573,1.73,1.888s-.158,1.416.786,3.3,3.146,2.359,3.932,4.719,2.045,5.348,2.989,8.494,0,4.876,1.1,6.449.787,1.415,1.73,3.932,2.045,6.292,2.988,8.179.629,3.618,1.888,4.719,1.1,1.573,1.888,3.146,1.258,3.46,2.831,4.561,2.2,1.73,2.045,2.674-1.416,1.888-.787,2.674-.11,1.887.81,2.831,1.864,1.573,1.235,2.517a1.441,1.441,0,0,1-2.674-.787c-.158-1.887.472-2.045-.158-3.46s-.314-2.045-.629-3.618-2.045-5.662-2.359-3.617a14.66,14.66,0,0,0,.315,5.348,40.469,40.469,0,0,0,.944,5.505c.629,1.887.787,3.3,1.416,5.505s.944,1.73,1.73,3.775.315,5.662,2.359,7.707,2.989,4.247,4.561,5.82,5.348,8.966,8.651,10.7a18.2,18.2,0,0,1,5.82,4.247c1.1,1.258,1.1,1.1,3.46,2.045s4.247,1.1,5.977-.786,6.921-3.618,8.966-5.348,3.775-1.887,3.932-5.19,1.887-3.932,1.887-6.606,0-5.662,2.045-7.235,4.876-3.3,6.764-2.674,2.988,1.416,3.618-.314,3.618.157,4.876-1.73,1.415-1.1,5.19-.786,6.134-.157,7.235.629,3.3,1.258,2.831.472a13.914,13.914,0,0,0-1.573-2.989c-.944-1.1-1.573-1.416-3.46-.629s-5.505.314-6.606-.944-2.045-2.517-.157-6.291,7.55-7.865,7.707-10.7.472-7.078,2.359-7.235,3.46-.472,5.662-.629a20.509,20.509,0,0,1,4.562.157c1.573.158,3.3,2.674,3.775.944s0-29.1,0-29.1a8.857,8.857,0,0,1-1.73-2.674c-.629-1.573.157-4.4.157-7.235a14.152,14.152,0,0,1,.944-5.348c.472-1.573,3.146-4.876,3.146-4.876s5.19-7.865,5.662-9.752,1.573-4.247,1.73-5.977.629-4.247.786-5.191,1.1-5.348,1.1-5.348,2.2-8.022.944-10.853-1.888-3.618-1.888-4.089.157-3.932-.314-4.876a29.175,29.175,0,0,0-1.73-2.988c-.629-.944-2.674-6.134-1.887-7.55a33.322,33.322,0,0,0,1.573-3.46s0-6.449-.629-8.494-.944-2.36-1.416-3.932-.944-3.46-.944-3.46l-.157-2.831.314-3.146.944-2.674,1.258-2.831,1.573-2.2.944-1.887,1.1-2.988,1.258-2.359,1.73-1.258,1.73-.787,2.359-.786,2.517-.629,1.675-.157.731.787v1.887l.252,1.573,1.581.629,1.577-.158,1.417-.786.473-1.416.787-1.73,1.258-1.1,1.416-1.415,1.258-1.573.787-2.516a15.19,15.19,0,0,1,1.1-3.146,14.055,14.055,0,0,0,1.1-2.831l6.292-.315s4.247-.629,5.5-.629a22.251,22.251,0,0,0,3.775-.629l2.831-1.1L336,542.284l2.045-1.1,1.573-.787,1.1-1.1.629-1.416.472-1.573.531-1.1.216-1.573v-1.1l-.177-1.416-.6-.629a5.217,5.217,0,0,0-1.715,0c-.944.158.165-2.359,1.423-3.3s5.666-6.291,8.34-7.393a33.793,33.793,0,0,0,4.878-2.517c1.73-.944,3.776-2.2,3.776-2.2l2.517-1.1s-1.258,1.573,2.2-1.573l2.2-2.045,1.888-1.888,1.258-2.2.787-1.888,2.359-1.73,2.045-1.73s4.876-4.719,6.134-4.876a15.7,15.7,0,0,0,3.146-.943l1.1-.944.944-.944.944-1.416.944-1.416,1.73-1.258,1.888-2.045,1.73-2.045,1.415-2.359,1.258-2.045,1.73-2.2,1.888-2.674,1.416-1.573,1.1-1.887.786-1.416,2.2-2.2L407.254,466l2.517-2.045,1.258-1.573a2.152,2.152,0,0,0,0-2.517c-.944-1.259.629-4.09,1.415-5.19a38.174,38.174,0,0,1,3.3-3.46l1.888-.787,1.415.787a3.252,3.252,0,0,1,.315,1.258,8.466,8.466,0,0,1-.315,1.725l-.629,1.411h1.258l1.258-.978,1.573-1.315s3.932-.972,5.033-1.286,3.3-1.115,3.3-1.115l2.674-.479,2.359-.947,1.887-.631,1.416-1.259,1.1-1.573.787-1.416,1.258-1.573,1.73-1.258,1.1-.944,1.1-.629,1.416-.786.944-.472a2.836,2.836,0,0,1,.292-.944c.314-.787.134.472.134-.787v-1.258l-.567-1.258.542-.944L450,432.5l1.591-1.1a46.839,46.839,0,0,0,3.3-3.775c.315-.629-1.1-2.2-1.1-2.2v-1.888l-.58-1.573-.8-1.416-.951-1.258-.919-1.416-.6-1.573v-1.888l.954-1.888,1.775-2.359,2.067-2.045,1.741-1.888,2.522-1.1,1.89.157,1.732-.157,1.259-.629,2.045-.472,2.359-.943,1.888-.944,1.73-1.1s3.775-2.359,4.561-4.876a8.893,8.893,0,0,1,2.517-4.09c.472-.472,1.73-1.573,2.045-1.1s.315.944,0,1.887-.944.787-1.1,1.573a1.8,1.8,0,0,0,.157,1.573,4.324,4.324,0,0,1,.157,1.887l-1.1,1.73s-.944.629-.786,1.416-.315.629.314,1.258a3.107,3.107,0,0,0,1.888.629l1.258-.18.472,1.55h1.73l1.1-.646.968-1.149.339-.519V400.41l.959-1.258.362-1.416.338-1.258,1.113-.472.635.629-.312,1.73-.628,1.416-.628,1.416s-.629.157-.472,1.1.158.944.158.944l.944,1.1.944.157.755-.472.282-1.1v-1.573l.386-1.1.39-.944,1.34-.944.554,1.258v2.517l.624.786.9.472,1.237-.157.933-.315,1.1-1.112.624-.483h1.258l1.2.129.727-.579v-1.415s1.042.157.177-.944-.776-1.1-.776-1.1l-.27-1.258-.45-1.258.483-1.416.477-1.258-.312-1.573L501,389.4l.315-1.416.472-1.258-.472-1.415-1.394-1.73-.45-1.573v-2.674l-.454-1.416-1.131-.787-.251-1.258s.976-3.618,1.133-4.876.173-2.831-.928-3.618-2.194-1.258-1.722-2.517a29.2,29.2,0,0,1,1.419-2.989l.631-1.73s.158-1.1-.628-1.259-2.359-.629-2.359-.629-1.09.157-1.719.315-1.4-.629-1.4-.629v-1.887l.343-2.045.132-1.258-1.271-.786-1.264-.787-.79-.944-1.045-.786s-.258.786-.258-1.888v-2.674l-.018-1.1,1.052-.943.92-.472.617-1.416.623-1.258-.16-1.258a5.117,5.117,0,0,1-1.1-3.146c.157-1.573,1.258-4.4-.63-4.4s-6.292,0-7.079-.157-.787-1.1-1.573-1.258-1.258-.786-2.045-.944a3.588,3.588,0,0,1-1.888-.944c-.472-.472-.629-1.1-1.1-1.573s-1.258-1.1-1.73-1.573a3.821,3.821,0,0,1-.629-1.73l.629-1.258,1.1-1.416.472-1.415.157-1.573.157-1.485.629-.541h.786l.472,1.131.472,1.076.944.145.944-.478.629-1.1.315-1.1.944-1.1.472-.944-.157-.787-.157-1.1.472-.786.786-.944,9.595.157.787-.629.193-.629.035-1.258v-1.258l0-1.258a5.032,5.032,0,0,0-1.453-.314c-.629,0-1.041-1.416-1.041-1.416l-.284-1.258-.457-.878-1.558-.091h-1.73l-2.2-.105-1.888.144-.786-1.107-.629-1.576-.629-1.1-.472-1.259-1.1-.629-1.258-1.274-1.258-.8h-1.258l-1.259.29-1.258-.13.472-6.907.944-.78.629-.94.944-.628,1.258-.471.629-.629.472-1.887.472-.786.944-.629.944-.472.157-.944-.944-.629-1.258-.629-.787-1.416.315-1.258,1.416-.472,1.416,1.1,1.73,1.416,1.416.629,1.064.315.278.629v1.416l.233,1.376,1.255.275h3.146l1.573.118,1.1-.334.629-.954-.985-.949-1.614-.949v-1.258l1.655-.717h1.73l.944.555.629,1.1.629,2.046,1.258,3.933s1.888,1.731,2.674,2.36a4.981,4.981,0,0,0,2.359.944c.787.157,2.045-.472,2.517-.314a4.053,4.053,0,0,0,1.422,0l.793-.944v-4.089l1.246-.551h1.258s-.315-.707.944.394l1.258,1.1.472,1.416.315,1.1.219,1.1.219.787v1.1s-.023-.158-.338,1.1-.208,1.258-.208,1.258-.418-.314-.1.944a9.736,9.736,0,0,0,.341,1.258s-.257.157.451,1.258.451-.472.451,1.1v1.573l-.3,1.573V301s-.722.157.379,1.73a10.326,10.326,0,0,0,1.173,1.573l1.294.472,2.22.315,1.739.157a26.558,26.558,0,0,1,5.352,1.1,8.68,8.68,0,0,0,4.406.472c1.1-.157,2.2-.944,3.3-.786s2.674-.158,3.618,0a13.572,13.572,0,0,0,2.674-.158,21.867,21.867,0,0,0,2.359-.314s4.247-1.258,5.348-1.1a19.29,19.29,0,0,1,2.989.314c1.1.315,1.573,0,2.517.158a14.4,14.4,0,0,0,2.674-.158,9.316,9.316,0,0,0,2.359-.629l1.888-.944,1.887-.314,1.73-.158,2.045.315,1.888-.315,1.258.472.944,1.1,1.1.629,1.1.533a5.662,5.662,0,0,0,1.258.061h1.1l.629.529.786.7.629.82a5.109,5.109,0,0,1,.786,1.118c.314.629.314.638.314.638l-.314,1.263-.944.631-1.416-.314-.472-.629-.629-.943-.629-.314-.944.315-.629.787-.157,1.1.629,1.1.629.787.157.944-.472,1.573s-.157-1.416-.786,1.416.472-1.416-.157,1.1-.472,1.258-.472,1.258l-.157,1.258-.472,1.1-.629,1.1s.157-.157-1.258.157-.629-.629-1.416.315l-.786.944-.472.944.157,1.258.315,1.73-.787.944L564.386,329l-.787-.472-1.258.315-1.258.786-1.573.629-.472,1.376-.944.589h-1.258l-1.1-.157-1.573.983-1.258,1.278-.944,1.425-.944,1.893-.314,1.575-.629,3.619.158,1.731-.472,2.045.944,1.73,1.73,1.73,1.051,1.416a20.931,20.931,0,0,1,.264,2.2v1.888l.4,1.416.4.943.672.629.965-1.7.807-.916h1.258l1.1.563.472,1.264.629,2.048.629,1.26.944.63,1.573.158,1.573-.943.944-1.416.315-1.415-.472-1.573-.472-1.573-.157-1.258.472-1.573.629-.944.786-1.1.787-1.416.157-1.258-.157-1.73-.315-1.573.472-1.888,1.259-.206,1.258.895h1.1l.944-1.091.787-.641,1.1-.641h1.1l1.1.724.629,1.9a5.987,5.987,0,0,0-.629,1.42c-.472,1.258-.472,1.261-.472,1.261s-.629.158.629,1.259,1.151,1.1,1.151,1.1l.837.944v1.573l-.483,1.573-.438.944.489,1.258.795,1.1.476,1.258s-.47,4.4,1.26,6.134a15.984,15.984,0,0,1,2.832,4.247l.472,1.73.866,1.888.552,2.045v2.045l.746,2.045.377,2.517.063,1.888v1.416l1.175.472,1.256.314.707-1.1.983-.944,1.592.315,1.425.786,1.578,1.416,1.261-.157a10.813,10.813,0,0,0,1.1-3.618,1.709,1.709,0,0,1,1.152-1.73l.523-1.573V373.2l-.955-2.045-.517-2.359-.573-1.73s-.6-1.887-.758-2.359a15.874,15.874,0,0,1-.3-2.045l-.15-2.359.475-1.573.631-1.573,1.416-.944,1.416-.315,1.228-.629.756-1.573v-18.4l-.323-1.73-.83-1.258-.887-1.416.658-2.045,1.43.629.794.944,1.262.787,1.1-.158,1.1-.786,1.573-.315,1.73.616,1.1.774h4.719a7.207,7.207,0,0,0,1.573,1c1.415.787,1.415.773,1.415.773l.787.308,1.416-1.733-.315-2.99.315-2.675s2.517-5.82,3.146-8.179a38.293,38.293,0,0,1,2.2-5.82c.629-1.415,1.73-3.46,1.73-3.46l1.73-3.3.452-2.831.295-2.045v-1.888l-1.653-1.1-2.2-.629v-1.73l.65-1.573.286-2.2,1.008-1.573,1.6-.786,2.061-1.573a13.7,13.7,0,0,0,1.424-2.674,4.537,4.537,0,0,1,.319-1.258l.4-.787.555-1.1v-1.416l-.3-1.415V277.1l1.207-1.258,1.193-1.258s.675-.158.518-1.416a10.256,10.256,0,0,1-.134-1.258l-.146-1.887s.635.314.006-1.73-.626-2.045-.626-2.045l-.628-1.888-.786-1.258s-1.1.157-.314-1.73l.787-1.887.944-1.416s1.573-1.1,2.517-.944,1.888-.944,1.888-.944l1.573-1.888,1.1-.943,1.73-.472.944-.944,1.1-1.73.787-1.258,1.573-1.1,1.258-1.258,1.73-.629s.157.315.944-1.416l.786-1.73s2.045-1.888,2.674-2.359,2.359-1.969,2.359-1.969l2.045-.868h1.888l2.2-1.058,1.416-.727.944-.884h1.73l1.258.591,1.1.807s.157.01.944,1.111.787,1.106.787,1.106.157-.155.943.946-.472.473.787,1.1l1.258.63s.157.472,1.258.157.375.472,1-.314.533-.786.533-.786v-1.416l-2.381-2.674-1.859-1.416-.772-1.416-.308-1.887s.161-3.46.318-3.932a23.116,23.116,0,0,1,2.047-2.674l1.574-1.73,1.731-2.2,1.573-1.258,1.888-.786,1.1-.944.314-1.573-1.258-.787-1.1-.786-.472-.944.472-1.416.472-1.1-1.73-2.2-1.573-.157-1.258.157-.786-.157-.944-1.1-1.573.314-.944.472-.472.787-.944-.756-1.1-.756h-.629l-1.258.245-1.1-.153-1.1-1.18-.944-.394h-1.1l-1.258.357-.944-.176s.157-.166-1.258,1.249-.786.625-1.416,1.411-.629.784-.629.784l-1.416.156L658.6,208.2l.157-2.359.944-1.573.944-1.258.629-1.1.629-1.416.314-1.416.157-1.73-.786-1.573s-.472-4.247-3.46-4.247-4.09.944-4.4,1.573-.943,1.573-.943,1.573l-1.573-1.258-.472-1.73.787-1.573s-.315-.472,1.416-1.1.786.315,1.73-.629l.944-.944-.629-2.2-1.573.315-.964.472-1.121-.472v-1.888l-.57-1.258-1.346-1.258-1.538.157-1.241.787-.935,1.258-1.254,1.416-1.57.629-1.729.787-1.73,1.416-1.258,1.415-1.258,1.573-.315,2.2-1.1,1.888-1.573.629-1.416-.315-.944-.786-.786-.629-2.045.157-.944-.629-1.416-.918-1.415.341h-1.73l-1.888-.066-1.1-1.409-1.258-1.57-1.258-.627-1.258.63-.787.787-.629,1.258-.157.8-1.416.489h-1.573l-1.888.415-.944.955-.944,1.578-.157,1.1-.157,1.417-1.888,1.574-1.258,1.1-.472.944-.314,1.258-.787.629-.572.943L602.092,206v2.045l-4.422-.472-1.778.315-1.2.944-1.388.314-2.5.157-2.038-.157-1.57.787-.714,1.258-.4.787v1.1l.126.787-.448.944.484.629.635,1.1-.311,1.258-.47.787-1.258.472-1.887-.157-1.415.786-1.1,1.1-1.258,1.258-1.258.786-1.73.629-1.573.944-.472,1.1.315,1.573.314,1.415-.314,1.416-.629.787-.943.944-1.416.786-1.1,1.1-1.73.472-1.258-.629-.944-.629-1.416-.157s-.157-.157-1.416.943l-1.258,1.1-1.1,1.258-1.73,1.416s-.629.944-1.888,0l-1.258-.944-1.416-1.1L554,234l-1.73-.472-.944.787.315,1.416.472.786-.786,1.1-.787,1.1-.157,1.258.629.787.629.944,3.618,1.887,1.573-.314,1.258-.315,1.416.315,1.416.472.944.944.314,1.415.158,1.1-.472,1.73s-.944.315-.315,1.416l.629,1.1,1.416,1.573s.944-.157,1.416,1.73l.472,1.888-.315,1.573-1.258.944-1.416-.472-1.1-.944-1.573-.157-1.1.786-.944,1.392-1.888,1.864h-1.573s-.315-1.117-1.888-.487a9.072,9.072,0,0,1-1.573.582l-1.258-.181s-.314-1.27-1.258-.483-.944,1.035-.944,1.035.315.721-1.416.721h-1.73l-1.416-.923a1.045,1.045,0,0,0-1.416-.265c-.944.472-.944.418-.944.418l-1.573.6s.157-.031-1.258.6-1.416.756-1.416.756h-2.359l-4.561-.179-.943-.365-1.416-.812-.944-1.114-1.258-.321-1.1.783a2.577,2.577,0,0,1-1.73.785l-1.258.156-.786,1.1s.944.157-.157,1.258l-1.1,1.1-1.73.629-2.045.277-1.73-.037h-1.258l-1.888-.631-1.887-.355-1.573-.806s.944-.8-1.1-1.111-2.045-.179-2.045-.179l-1.573-.179h-1.258a5.851,5.851,0,0,0-2.674.764,8.014,8.014,0,0,1-1.416.736l-1.415-.5s-.157-.327-.787-1.586-.629-1.265-.629-1.265,0-.16-1.258-.318-1.258-.159-1.258-.159-.315.157-.944-1.1l-.629-1.258s.314-.629-.629-1.258l-.944-.629-1.73-.472s.944-2.674,1.416-2.674.944-.944.944-.944l-.472-1.73-.629-1.416L487,248.784l.314-1.73-.1-1.258.687-1.416v-1.73l-.018-1.573.58-1.573.133-1.73-.17-2.045L487.163,234l-1.419-.943-1.417-1.258-1.731-.157-1.888.786-1.73,1.258-1.258,1.1-1.259,1.1-1.416,1.037-2.045.093h-1.573l-1.258,1.126.157.838.786,1.206.472,1.075-.314,1.4-.315,1.409L469.7,245.8l-.787,1.414-.157,1.729-.157,1.887.472,1.887.472,1.416-.157,1.415-.944,2.045-.315,1.258.944,1.887s-2.2-2.674,1.1,1.573l1.258,1.258.944,1.1.944,1.416.314,1.73-.314,2.045-.315,2.2-.786,1.1-.472,1.416.157,1.73-1.1,1.258-1.1.315-1.416-1.258-1.573-.315-2.2.157-1.573.472-.786,1.1-1.573.472-1.258-.786-1.416-.472-.944.786-1.1,1.1-1.573.629-.787-.787-1.573-.472-1.573-.157-1.258-.944-.315-1.573-.472-2.2s-1.866-.673-3.046,2.394-4.718,2.831-4.718,2.831l-1.651-.472-1.18-1.18-1.651-1.18-1.888-1.18-2.123-.943-2.359.236-2.359.708-1.887-.708-1.651-.236-1.888.236-.944.655-1.18.183H417.95l-.764-1.856-.236-1.614-.708-1.4-1.18-1.406-1.18.241-2.359,1.059-1.18.822h-1.2l-2.1.613-1.415.171s-.708.439-1.416-.74-.708-1.087-.708-1.087a6.711,6.711,0,0,0-2.123-.143h-1.832s.888-.367-.527-1.782.708-.683-1.416-1.39-2.123-.683-2.123-.683h-2.54s-1.471,1.325-1.942-.8-.472-2.147-.472-2.147l.708-2.843s.943-2.837-3.775-2.6-6.134-1.654-6.134-1.654l-1.18-1.417-1.888-1.416-1.18,1.179s1.651.472-.944.708-.472,0-2.595.236-.708-.472-2.123.236l-1.416.708-2.6-1.415-2.123-.708s-.944-.943-2.831.236l-1.888,1.18.236,1.18-.708.472-1.415-.236-1.888-1.18s-2.831-.472-3.539-.472-1.416-1.651-2.359-1.415a12.64,12.64,0,0,1-3.067,0l-.708-1.651-.708-2.359-.944-1.416-2.359.708-1.888.708-2.359-.236-1.651-1.415-2.359-1.888s.944-.822-1.888-1.765a12.97,12.97,0,0,1-2.831-1.058h-1.678l-1.86,1.272-1.888-.168s.236.034-1.651-1.382a19.617,19.617,0,0,0-1.887-1.4c-2.359-1.651-2.359-1.643-2.359-1.643s.472,0-1.888-1.411-1.18.474-2.359-1.413l-1.18-1.886-1.18-1.887-3.3-3.067-5.19-1.651-1.887-.472-2.831-.944-1.888-1.887-1.887-1.888-.944,1.18-1.18.708s1.651,2.595-2.123-.944,2.359,2.123-1.651-1.416-5.426-7.549-4.246-8.965,3.539-4.011,3.539-4.011a8.979,8.979,0,0,0,.236-3.067,27.862,27.862,0,0,1-.236-3.775l1.887-1.416,1.18-1.651.236-1.651-.472-2.123.944-2.123,2.359-.943,1.416-1.888s-.708-.943,1.18-1.651l1.887-.708,1.18-1.887s-.472-1.048,1.651-1.756,2.123-.813,2.123-.813h2.41l-.05-1.763-4.247-1.373-1.651-2.574-3.539-2.585-2.831.713L292.856,176l-2.359-1.414-3.3-1.415,1.651-4.246s-5.662-2.831-7.549-4.011a37.322,37.322,0,0,0-4.011-2.123l-2.123.944-1.416.236-7.313-6.134-.472-3.067-1.651-1.887-1.887-1.416L259.591,155l-1.887.708-.472-1.416-.472-1.651-1.651-1.651-1.18-1.18,1.18-1.415,1.18-1.18.236-1.18-1.651-1.415-.944-1.18.236-2.123s1.18,1.415.943-1.888.472-1.651.472-1.651l-.708-1.652-1.416-1.651s-1.415,1.651-1.651-1.416,0-1.888,0-1.888,2.831,0-.236-1.18-2.6-.236-2.6-.236l-.472-.944.708-1.415.708-1.18-.708-2.123-1.416-1.651.944-1.888s.472.472,2.123,0l1.651-.472s-.472-.708.708-.943l1.18-.236,1.18,1.651.944,2.6.708,2.359,1.416.944,1.415.472,1.416-.236,1.415-1.18.472-1.415,1.416-.472,1.651-.236.708-1.887,1.651-.236,1.416.472,1.415-.708,1.3-1.651.832-1.415V116.5l-4.12-4.911.281-3.3.281-2.359v-2.167l-.453-.9-2.247-.708-2.067-.236-2.331-.472-1.4-.708-.937-.943-.7-1.888-.234-2.123.709-1.415,1.652-.472.708-1.18-.708-2.359L260.535,88l-1.18-2.123.708-2.359,1.416-.236,1.651.726a2.05,2.05,0,0,1,1.887-.925h1.464l1.839.908,1.888.235s.472-2.832,1.415-3.539a17.363,17.363,0,0,0,2.359-2.6l.236-1.651-.708-1.751.236-1.987h2.33l1.445.122,1.887-3.854.472-1.691,1.9-.728s-.248,1.17,1.4-.01,1.651-1.185,1.651-1.185.472.705.708-2.362.236-3.068.236-3.068l.236-2.6,1.18-3.067c1.18-3.067.472-.472,1.18-3.067l.708-2.6-.236-2.6s.708-.472,0-2.595,0-.944-.708-2.123.944.236-.708-1.18l-1.651-1.416-2.9-2.359-.641-1.18-2.831.236-1.415-.236-.944-.236-3.067-.708-2.123-.944-1.18-2.123-1.651-.472-1.888.708-.708.944-.708,1.415-.944.236-2.6-.236-2.359-.236L257,33.975l-2.831,1.18-2.123.943-1.416,1.18-1.887-.708-2.123.944L245.2,39.4l-1.651,2.123-1.415.944-2.123-.944-1.415-.472L237.65,42.7l-.472.944-1.18.236-1.888-.943-2.123.472-2.6.708-1.887.236-1.416-.708.639-1.415.167-1.18V39.59s.281-.189-.663-1.6a10.178,10.178,0,0,1-.9-1.416L223,35.862l-1.876-.708-1.882.236-1.648-.472-2.122-.236-1.887-1.888-1.415-5.19-.708-1.415-2.123-.472L205.8,21.9l-.472-1.7h-3.493l-.989-1.151-1.18-1.5-1.25-.988-2.525-.494-2.123-1.191-1.887-2.129-1.887-1.89s0,0-2.123-2.125l-2.123-2.124L184.1,4.485s-.708-.236-.944-2.124,1.416-2.123-.236-1.888L181.265.71s-.472,0-.944.943.708,0-.472.944l-1.18.944s.236.943-1.415.472.236-.236-1.651-.472L173.716,3.3,171.828.71,170.649,0l-2.6.236-2.359,2.831-2.359.708-2.123.236-4.247,1.651-2.123,1.651-3.3-2.831h-.979l-1.616-.448L148.6,5.676l1.777,1.639v1.6l-3.214.284L135.431,8.5s-.911-.236-1.383,1.651-.455,1.887-.455,1.887l-1.643,1.887-1.883,1.651-1.649,1.651-.707,1.888-2.123,1.651L122.443,21l-1.728,1.416v1.918l.764,1.856.4,1.887-.624,1.415.75,1.079,2.165.607h1.693l1.846.36s2.089,1.583,3.4.83" transform="translate(0 -0.002)" fill="#e3e3e3" stroke="#bfbfbf" stroke-width="1"/>
        <path id="Path_6388" data-name="Path 6388" d="M597.777,374.348a3.79,3.79,0,0,1,2.989.472c1.888.944,2.674,1.73,2.831,0s2.359-2.359,4.247-3.618a8.275,8.275,0,0,0,3.146-3.146c.472-.944.944-1.1.944-2.517s-1.1-3.3-1.416-5.033,1.258-2.517,2.674-1.258,2.045.338,2.517-.618.157-2.685,1.573-2.214,1.73,1.57,2.517-.08,1.1-3.852,3.146-4.481,3.932,0,5.662.314,2.831-.944,3.775.629a21.341,21.341,0,0,0,4.4,5.662c2.2,1.888,4.247.944,5.662,2.517s2.045,1.573,3.46.943,2.517-2.517,4.561-2.988,2.989-.158,3.618,1.573,2.045,2.045,2.674,4.246.157,3.146,2.359,3.146a8.466,8.466,0,0,0,4.4-1.416c.944-.472,2.045-2.516,2.831-.472s-.944,3.618.472,4.089,4.4-.629,4.876-.158" transform="translate(-420.478 -247.308)" fill="none" stroke="#bfbfbf" stroke-width="2"/>
        <path id="Path_6389" data-name="Path 6389" d="M801.332,521a7.547,7.547,0,0,0-.413,2.3,6.442,6.442,0,0,0,.973,1.386l.959,1.4-.307,1.251s-.468.714-.94.827a5.829,5.829,0,0,1-1.729-.2l-.628-1.1a1.177,1.177,0,0,0-.628-.771c-.472-.157-1.258-.457-1.258-.457h-1.416l-.315-1.1-1.416-.2-1.73-.151-1.573-.155-1.73-.3-.944-.767h-1.573l-.786.257-1.1.719-1.1.671-1.1.38-.786.149a32.418,32.418,0,0,0-3.775.94,8.418,8.418,0,0,0-1.73,2.087l-.944,1.528-.629.786.944.944.629,1.258-.315,1.259-1.293,1.1-.507.944V537.4l.7,1.888.155,1.73-.473,1.573-1.1.944-1.605.629-.347.472v.787l.544.943,1.255.787,2.043.472,2.516,1.416,1.573,1.1.943,1.1-.315,2.044-1.573.944-1.258,1.1-.629.787-.629,1.73-.314,1.573-.315,1.258.315,1.73.472,1.888.629.944.944.314,1.258-.472,1.1,1.415.787,1.573.944.471,1.1-.314s-.944,1.258,1.416-1.258,1.1-1.1,1.1-1.1l1.258-1.415,1.573-1.1s.157-1.1,1.415-.472a11.311,11.311,0,0,0,1.331.629l.388,1.258v1.258l.438.5.517.033H793.9l1.1.714,1.416.476.944.709,1.258.827,1.258.649.943.954a2.731,2.731,0,0,1-.314,1.106c-.315.629-1.416.632-2.2,1.1a2.879,2.879,0,0,0-1.1,1.26l1.416,1.258.944,1.259a4.031,4.031,0,0,0,.944,1.888,2.744,2.744,0,0,0,1.73.315l1.573-.629s1.416-.265,1.73.654a10.368,10.368,0,0,0,1.258,2.177l2.674,1.573,1.73.786.472,2.044.786,1.416,2.2-.315,1.888-.315,2.045.157,1.573-.786,1.887.629,1.1,1.416.786,1.258,1.614.157,1.06-.786,1.416-1.888,2.045-2.2" transform="translate(-542.675 -366.474)" fill="none" stroke="#bfbfbf" stroke-width="2"/>
        <path id="Path_6390" data-name="Path 6390" d="M629.784,410.153l1.843,1.93v1.73l-1.367.786-1.588.787-.794,1.653-1.1,1.65-.631,1.258-.787,1.416.471,1.416,1.415,1.258,2.359.629,1.966,1.1,1.022,1.573-.787,3.775.472.944.944,1.258.944,1.573.944,1.73.629,1.573.472,1.888.315,1.671,1.1.57h1.416l1.1-1.239.472-1.131,1.3.143.986.771v2.938h1.332l1.888-.25.475,1.094.161,1.566v1.73l-.122,1.416-.336.83,1.169,1.529,1.764,1.1,1.275.629.795,2.2,1.577-.315,1.575-.472,1.417,1.222.787,1.065h1.416l.944,1.1.472,7.352,3.146,1.552,2.2-.482a7,7,0,0,1,2.045.938c.472.472,1.823-.16,1.823-.16" transform="translate(-439.877 -288.503)" fill="none" stroke="#bfbfbf" stroke-width="2"/>
        <path id="Path_6391" data-name="Path 6391" d="M486.042,576.157l1,1.8-.443,1.846-.772,1.709.637,1.72,2.363,1.076,4.563.374,8.338.354h3.46l2.674-.553,1.73.549,1.573,1.336,1.888.629,2.045,1.258,1.1,1.888-.472,3.677.472,1h1.258l1.258-.886.787-1.426.786-1.736,1.259-.946,1.416-.159,1.258.786,1.258-.315,1.73-.944,1.258-.472,1.73.472,1.1,1.1,1.1.786,1.416-.157s.315.157,1.416-.944l1.1-1.1.8-.315.8-1.1v-3.146l1.186-1.1v-1.573l.613-.472,1.29.944,1.9-1.258.637-.629.948,1.573,1.417.157,1.1-.629.944-.944-.472-1.573-.472-.944,1.258-1.1,1.416-1.068,1.1-.753h1.1l1.1.593h.944l.75-.823.435-1.252v-2.045l-.4-2.359-.552-1.573-1.77-.944-1.75-.787-1.111-.786,1.253-1.258,2.24-1.273" transform="translate(-341.735 -395.629)" fill="none" stroke="#bfbfbf" stroke-width="2"/>
        <path id="Path_6392" data-name="Path 6392" d="M599.69,604.851l-.354,2.282-.885,1.34-.6.5-.457.622-.464,1.569-.311,1.57-.94.941h-1.573l-2,.119-1.212,2.4v1.73l.465,1.573L591,620.758l-.965.629-1.269,1.416-.32.786-.475,1.416.47,1.888.314,1.573.157,1.258.471,1.258s.629.157.472,1.1l-.315,1.888-.472,1.73.315,2.045.944,1.258,1.1,1.1.472,1.258.157,1.573-.315,1.258-.157,1.888.787,1.73.943,1.573.315,1.73s-1.258,1.258-.315,2.359.609.944.609.944l3.795,1.416.315.786-.157,1.259-.314.944-.787.944.629.944.629,1.258-.157,2.045-1.1,1.73-.157,3.146-.157,1.1-1.258.629-.629.315L593,671.6l-1.573.509h-2.045l-2.045.238-1.416.63s-1.1,2.2-2.2,1.888,0-3.3,0-3.3.158-5.977.158-7.392-.315-2.517-1.573-2.517-3.146-.314-4.09,1.73-1.258,2.831-2.044,3.3-1.73-.314-1.73-.314l-.472-1.73-.786-2.045-1.2-.786-2.146.629v3.618l-3.559.315v4.4l-5.236.158s-.848-1.73-.062-2.674a5.939,5.939,0,0,0,1.07-2.2l.142-.944-.165-1.258.31-1.416,1.571-.786.156-1.1a8.791,8.791,0,0,0-3.146-3.46c-1.888-.944-2.359-2.359-2.989-2.674a6.1,6.1,0,0,1-1.416-1.258l-1.1-1.1-.472-1.416-2.045-.629-.471-3.3-.315-2.831-1.416-1.415,1.1-2.045.472-.566-2-1.322-.9-1.258V635.7l.622-1.573-.751-1.258-1.044-.629-1.269.472-.949.507-1.578.035H542.83l-1.73-1.018-1.1-1.492-1.1-1.3-2.045-.176-2.2.777-1.4.939-1.083-.477v-1.73l-1.394-1.887.758-.472.772-.944-.165-1.258.154-1.258.313-.944.314-1.258-.158-1.1-1.711-.157-1.553-.157v-.787l.963-1.415.443-2.517" transform="translate(-372.452 -425.455)" fill="none" stroke="#bfbfbf" stroke-width="2"/>
        <path id="Path_6393" data-name="Path 6393" d="M716.227,739.7l-3.733-.1-2.448.112-.4,1.152-.107,1.469-.316.944-.315.734-1.572.944-.838.839v.891l.72,1,1.631-.086,1.185.018h1.652l.891.7.734,1.046.734,1.1,1.258.655,1.154-.407,1.973-1.514" transform="translate(-496.954 -520.237)" fill="none" stroke="#fff" stroke-width="3"/>
        <path id="Path_6394" data-name="Path 6394" d="M381.03,829.7l.385,4.7v2.559l1.286,2.4,1.61,1.651.451,1.651,1.913.708.969.944v1.458l.924,1.137-2.975,2.475.328,1.06h4.529l-7.36,4.817.944,3.02,2.595-.731,2.485-2.371,1.762-.95,3.539.469,2.831.942,1.887-2.36,1.819-.472,1.819,1.179v1.7l-4.91,3.967-3.493,1.888-3.516,2.123-10.6,5.662-5.656,3.3-5.432,4.718-7.319,3.539v5.157l.693,4.044.959,3.775,3.075,1.888,3.779-.708,4.72-.472,2.36-.944,2.359-1.888,1.652.708-.236,2.831.577,2.359-.577,3.005-3.067,1.118h-4.043l-3.742-.394-1.651.967.472,2.135.911,1.893-1.855,1.182-1.651,1.645,1.416,1.173h4.528l.426,2.147.708,2.591-1.081,2.121-1.75,1.188-2.6-2.115h-1.684l1.212,3.742,1.18,2.13,1.147,1.655-1.383,2.1-1.888.453H364.5l-1.461-1.85-.472-.941-1.651.473-.944.709-2.359-.472-1.888-.472-2.634-.708-1.926-.944v2.564l-1.6,2.155-2.348,1.416-2.118,2.831-1.413,1.18-1.886.472-2.359,1.18a16.158,16.158,0,0,1-3.775-2.831c-1.18-1.416.472-3.539,2.124-3.3a11.107,11.107,0,0,0,4.011,0c.708-.236.472-1.18.472-1.18l-1.18-1.18,1.18-1.651.708-1.651-.943-.943-.236-1.651.472-1.416,2.831-.944,1.18-1.887-.708-1.887s-.708.472-1.18-1.18.944-.236-.472-1.651l-1.415-1.416-2.6,1.18-2.123.708-2.123.236-2.359.472-3.067-1.416-1.651-2.831,1.888-1.651,1.651-.708.708-2.123-.944-1.651-1.651-.944-1.651,2.123-1.415,2.19-.944.538h-1.215l-2.324-1.7-2.6,2.554,2.123,2.1,1.18.225-.708,1.4-1.651.459H319.2l-.751,1.676-.586,1.647,1.058.942.472,1.178-1.53,2.123,1.058.943.472,1.18,1.887-.236,1.117,1.18-.3,1.416v1.855l1.483.976v2.328l-1.483,1.683v1.935s1.142,4.907-.745,6.794-6.288,3.3-6.288,3.3l-1.611,1.415s-.923,1.125-.451,1.833a3.894,3.894,0,0,0,1.672,1.125h1.695l.193,1.957-2.359,2.132-5.426.953h-1.845l-1.222-1.665-1.651.725-.944-.7-.943-2.119-.944-1.177-1.651-.943-1.651-1.179-1.887-.3-.944-1.244h-3.1l-1.034-1.522v-2.626l-.429-1.856-1.845.236-1.159-.708-1.169-2.6-1.882-1.416.485-2.359.957-2.123v-1.6l-.975-.991-1.882.472s0,2.595-2.121-.708-1.512-1.651-1.512-1.651l-.332-1.651v-1.447l.785-2.327.413-1.415-.973-2.123-2.374-1.415-1.423,1.18-.475,1.887-1.417-.236-1.652.236s0,.472-1.416-.944l-1.416-1.415-1.652-.236-1.415,1.18-4.011-3.539-2.831-2.123-2.6-1.18-2.123-1.651-2.359,1.044-1.651.336h-2.4l-2.084-.3h-2.163l-2.084-1.587-13.877.488" transform="translate(-160.302 -583.617)" fill="none" stroke="#bfbfbf" stroke-width="2"/>
        <path id="Path_6395" data-name="Path 6395" d="M350.321,1309.476s2.81-1.646,3.754-1.646H358.6l1.766.78.391,1.2v1.468s.1.42.807.892a1.844,1.844,0,0,0,1.682-.05l1.447.16h1.929l1.138-.907.236-1.319a6.131,6.131,0,0,1-.472-2.86,6.733,6.733,0,0,1,1.651-2.584l-.708-1.41-.708-1.177-.472-1.6,1.18-.894h1.457l1.138,1.288,1.18.788H373.7l1.138.815,1.651-.9.944-1.4,1.18-.725a7.293,7.293,0,0,0,1.332-1.383,4.327,4.327,0,0,0,.388-2.119v-1.128l-1.117-1.466-.655-1.651-.681-1.416s-.931-1.179-1.874-1.179a3.267,3.267,0,0,1-1.881-.944l1.183-.708,1.889.472,1.18-.944,1.18-1.18.986-1.415.9-.916,1.416-1.388h5l1.845-.957,1.888-1.2.708-1.426-1.18-.848-2.123-.612h-1.137l-1.458-.3h-2.16l-1.851.848-1.887.213-1.415-.719.236-1.658.944-1.182-.236-1.417-.472-1.659.944-.951h1.851l1.924-.923,1.174-1.891,1.409-1.42v-1.68l.26-2.094-.714-1.928-.242-1.928h1.222l.9-.652.943-.695-.472-1.173-2.359-1.413-1.18-.736.472-2.152h5.626l1.688-.938.944-1.86,1.415-1.4.708-1.408-1.416-1.176-1.18-1.65-.472-1.887.043-3.231" transform="translate(-246.417 -870.76)" fill="none" stroke="#bfbfbf" stroke-width="2"/>
        <path id="Path_6396" data-name="Path 6396" d="M809.124,868.372l2.986,2.222,2.8.571h2.564s-.205-.806,2.154.173.944-.114,2.359,1.065a16.183,16.183,0,0,1,1.415,1.223l1.651,1.437,1.416,1.9,1.048,2.365.34,2.836v2.325l-1.023,1.686-1.053,1.415v1.617l.006,2.157-1.262,1.887-1.352,2.359-1.13,2.595-1.6.708v1.618l-1.493,2.157a14.438,14.438,0,0,1-2.609.708,21.281,21.281,0,0,1-4.018,0l-1.655.944-1.606,2.831-.52,1.887.944,2.123.472,2.123-.9,2.595-1.463,1.651-1.416,2.359-.944,2.595,1.18,2.123,1.18,2.123-.236,2.831-.472,2.6,1.888,1.415a25.986,25.986,0,0,1,1.415,2.831l.708,1.651,1.887-1.416,1.416-.708,1.415.944,1.651,1,1.887.3h2.093l1.811-1.224,1.238-1.491V933.4l-.747-1.226,1.459-2.123-1.158-1.415-2.238-.472-1.766-.472v-2.313l-.567-2.641-.889-1.888L817,919.2l.722-2.123-.7-2.123-.94-1.888-1.178-2.123.945-3.067,2.124-1.18,2.123-.2,1.652-1.226h1.7l-.52,2.892-1.18.8.472,1.58,2.831,1.379,1.416,1.4,1.887,1.643,1.888.7,1.887-.946.708-2.125,1.416-1.416,1.887.235.472,1.415-.708,2.359.708,1.411,3.539-.948h2.8l2.153.218,1.415-.93.944-2.116,1.821-.94,2.426-1.65,2.095-1.651,2.074-.707,1.338,1.416v1.933l1.483,1.37V915l-.807,1.841,1.391,1.651,2.347.236,1.409-1.18,1.412-1.477,1.412.174H867.8l2.073-1.1,1.651-.213-.708,3.55-1.18,1.421,1.415.71,2.359-.234,2.123-.471,1.369.236,1.369-2.359V916.1l1.437-1.855,1.688.262,1.216,1.441h1.7s-.051-.481,1.129-1.661,1.18-1.2,1.18-1.2l1.18.933s0,.466.943,1.882.944,1.385.944,1.385l2.359.441h1.861l.972,1v2.09l1.311.976,1.939.708,2.149,1.651,2.136.708.715,2.359,1.655.708,2.125-.472,2.1-.943,1.914.236,2.6-.472,1.651,1.416-1.067,3.539-.832.944V934.5l1.317,1.448-.416,1.651-.916,1.415a1.854,1.854,0,0,0,.014,1.651c.472.708,3.31,4.954,7.556,6.37s7.317-2.831,7.317-2.831l1.417-2.831s.473-1.651.709-2.359a19.814,19.814,0,0,0,.472-2.359l.236-3.539-.236-1.888,1.416-1.18.708-1.887-.708-2.123-.708-2.831-1.762-3.067-1.29-2.6v-3.808l1.538-3.506,1.7-1.887,2.872-1.416,2.827-.708,2.129-.944,1.89-3.3,1.417-1.651,2.6-1.18,1.18-1.651,2.359,1.18,1.887-1.06,2.359-.352h2.414l1.361-1.047-.472-2.31-2.6-1.406-.944-1.17h-2.383l-1.391-.676-2.365-2.36-2.365-1.652V884.33l2.1-.988,1.078-1.651-.641-1.416-2.326-.472L943,879.1l-1.879-1.416,1.184-1.651,1.89-.472,1.18-1.888,3.068.236,2.123.472.944-1.415-1.651-1.651-1.416-1.416.472-2.237-1.887-.349h-3.249l.05-2.133v-1.923l-2.32-1.144.282-2.6-1.864-1.651-2.112-3.539-.7-4.011" transform="translate(-566.404 -598.113)" fill="none" stroke="#bfbfbf" stroke-width="2"/>
        <path id="Path_6397" data-name="Path 6397" d="M1339.47,915.128l2.938,2.184,1.233,2.389.5,2.61-.93,1.659-1.881,1.183-1.648.946-.47,1.652-.471,1.62-1.179,1.62h-2.851l-.452,2.133,1.18,2.268,1.887.9,1.18,2.1,1.416,1.64.944,2.117.944,2.265-.944,1.269-3.3-.944-1.652.472-1.18,1.887.236,2.4-.708,1.369h-1.907l-2.339-.647-1.651,1.864-.708,1.156h-2.537l-1.238,1.548-.472,1.347-2.242.437-1.3,2.561v2.4l-.854,3.257-.4,2.359-.435,1.651-2.341.472-1.878,1.416-1.883-.472-2.357-.472-2.358.472-1.415,2.359L1305,975.41l-1.18.944-2.123-.944-.236-2.595-1.887-1.18-2.831-.236-.472-1.651-.472-1.887-3.067.236-3.3-1.416-2.123-1.18-2.123,2.831.472,2.123-.236.944-4.954,2.359-3.539,1.18-2.6.808-1.415,1.516h-1.911l-2.1,1.1-2.123-1.35-1.18-1.822h-1.675l-1.628,1.648-1.18,1.615h-2.068l-1.471,1.78h-2.147l-1.712-2.458v-1.448l-1.125-1.855-3.406.943-1.231.708-.969-3.3-.721-.708-2.366,1.6-2.13.889H1234" transform="translate(-867.999 -643.705)" fill="none" stroke="#bfbfbf" stroke-width="2"/>
        <path id="Path_6398" data-name="Path 6398" d="M1224.51,1070.4l4.469,2.81,2.353,3.11,1.884,1.357,1.414,3.064.943,2.594,1.887.471,1.179-.708.708-1.652,1.415.708.472,1.651-1.18,2.359-.472,1.887,2.123.708,1.18,1.651-.708,3.3.708,2.595,1.887,1.18,2.359,1.415,2.359.472-.708,4.011-1.651,1.888-2.6,2.123-3.3,2.6.708,2.123,2.123.472,1.18.708,1.651,1.416,1.887.472,1.887-.472,1.651-1.179,2.123-1.18,3.067.236,3.539-.708,3.067-.236,3.3-.472-.236,5.191-2.123,3.3,1.887,2.123,2.6.708s.236.472,1.887-1.18l1.651-1.651,1.888-1.179,2.123,1.179,1.887.943,2.124-.472,2.123-.708,2.124,2.6,1.651.236,1.613-1.18,1.142-2.082v-2.665l-.226-1.858-.674-2.6-.22-2.359,1.9-1.18,2.363,1.416,1.89,1.651,2.6.472,1.416,1.416,2.6.708,2.123.236,4.148,2.123,2.261-1.652v-1.681l-.874-2.094-.172-2.123-1.148-1.18-1.872-.708-2.115-1.416-1.648-1.651-2.357-1.887.237-1.651.472-2.6-.472-1.2-2.359-.286h-2.145l-2.1-1.052-1.651-2.153a3.28,3.28,0,0,0-1.887-.958,9.475,9.475,0,0,1-2.36-.479l-1.887-.712-.472-2.6.472-2.124.236-2.124,1.416-1.18,1.416-1.416,1.887-.472,1.651,1.317.944,1.789h2.337l1.673-.869.708-3.124,2.123-1.916,2.123-.25,2.359-.479,2.124-1.13,1.179-2.65.944-2.124,2.124.471,2.123.707,1.887,1.179,1.651-.472.472-1.415.472-2.121.236-2.121h1.867l1.672-.262,2.123-1.405,1.651-2.118a46.426,46.426,0,0,1,3.539-3.536c1.415-1.18,3.067-4.481,3.067-4.481l-1.179-3.066,1.416-1.415-.236-2.123-.708-2.595.944-2.359-.708-3.3-1.887-2.831-.236-3.067-1.416-1.528" transform="translate(-861.324 -727.093)" fill="none" stroke="#bfbfbf" stroke-width="2"/>
        <path id="Path_6399" data-name="Path 6399" d="M1505.406,1312.54l.9,2.624,2.824.425,1.884,1.176.47,1.948,2.122,1.352,2.595-.472,1.887-.881,1.415,2.735,1.18,2.09h2.417l.885,6.379" transform="translate(-1058.907 -923.245)" fill="none" stroke="#bfbfbf" stroke-width="2"/>
        <path id="Path_6400" data-name="Path 6400" d="M1134.629,1298.89l-.558,2.956-2.874,1.149-2.145.419-3.078,1.166-1.657,1.644-1.559,1.412-.333,2.122.331,1.415.848,1.415.943,1.179-.236,1.651-2.343.944-1.9.708-.944,1.887-.236,1.651-1.329.944-.832,2.123v1.7l2.509,1.224-1.763,1.275h-.89l-.761,1.571-1.18,1.6-1.179,1.624-1.651,1.4-1.416-.951-1.18-.711-2.123-.453-2.123.963h-2.857l-1.154,1.173-.236,1.4-1.664,1.407-.72,1.407v2.332l-1.154,1.775h-3.25l.419,3.111-.419,2.525-.76,1.852.708,1.87,1.651,1.407-.236,2.355a5.059,5.059,0,0,0-.708,3.537c.236,2.359.236,2.358.236,2.358l2.6,1.022,2.123,1.022h2.412l1.127.839.472,2.132-.944,2.368h-1.127l-1.468-1.684-1.887-.688h-1.678l-1.861.3-1.416-1.122-1.416-1.622-2.359-.693-2.831-.936-2.534.24-1.119,1.183v2.648l1.093,2.123,1.634,1.127.7,1.651-.24,2.359.47,1.415,1.414,1.416,1.651,1.651.236,2.831.236,3.775.708,2.123.708,1.651.236,2.359-1.18,2.6-1.179,1.887-2.123,1.888-2.359.943-.236,1.416.472,2.359-2.308,1.887-3.827,3.067-3.3.944-.708.944.472,1.888-.472,2.359-2.123,2.359-1.18,3.3,1.18,2.831a19.822,19.822,0,0,0,5.662-1.887c2.595-1.416,4.483-2.359,4.483-2.359l2.595-1.18,2.123-.944,1.887-.236,2.6.236,2.131-.472.715-1.887v-4.9l-.82-1.942.992-2.359,1.44-1.18,1.428-.236,1.186,2.359,1.183,2.123.473,1.651,1.652.944,2.359-1.416,1.416-2.132,1.416-.48h1.39l2.177-.255,1.208-1.38v-2.305l-.526-1.47.943-2.123,1.416-1.415,2.359-.944,2.123-.708,1.651-1.651.708-1.651-.472-2.123,2.359-1.651,1.652-1.18,2.359-1.18a19.815,19.815,0,0,1,1.651,4.011,2.161,2.161,0,0,0,2.359,1.651,1.676,1.676,0,0,1,1.415.944c.472.943,2.359,1.651,2.359,1.651l3.3,1.18,2.831.236,2.123-1.415.944-1.651.708-1.888,1.416-1.179,1.651-.944,1.887-.708,1.888-1.887,6.606.472" transform="translate(-753.839 -913.644)" fill="none" stroke="#bfbfbf" stroke-width="2"/>
        <path id="Path_6401" data-name="Path 6401" d="M1036.4,1167.971l-2.87,2.4-1.494,1.337-1.376.7a4.907,4.907,0,0,0-1.534-.4H1025.2l-1.573-.311-2.045-.117-1.887.178-.786-.147-.944-.854-.944-.239-.944.519-1.1.676h-1.258l-.629-.556-.629-.632-1.415-.945-1.282-.158-.968.671v.9l.535,1.465.543,1.209.193,1.259-.612,1.415-.777.944-.939.944-.469.944.316.955,1.1.483h1.258l.629-.365.943-.537,1.258-.111,1.1.495,1.573.326.944.163.315.947.472,1.1.629.945h2.988l1.18.747.551.649.157.953-.943,1.106-.716.632.227,1.1v1.258l-.927.67h-1.573l-.629.1-1.35.4-.564.874v2.045l-.5,1.573-.682.786-1.206-.314-.76.314-.616,1.1-.736.472.049,1.888v1.416l-.318.629-1.064.315-.453,1.1-.148,1.1-.782.472-1.728.787-.785.786-1.78,1.259-1.05-1.006-1.1-1.039-1.415.775-1.1.775h-1.573l-1.1,1.073-.472,2.306L995,1213.024l-.629,1.874-.629,1.566-2.2.56-1.573,2.109.472,2.358-.158,2.359-.786,1.573-1.416.472-.944.943.472,2.517-.157,3.46-.629,2.674-.787,1.573-1.416,1.888-2.2,1.73-1.53.786-.271,1.1v2.359l-.319,1.888.43,1.1,1.238-.315.933,1.1.309,1.888.154,1.1-.158,1.573-1.1,2.359-.157,1.258.879.943,1.351.315v1.73l-.683,4.247-2.819.786-1.409.629.318,1.573s-1.886,2.045.159,1.887l1.417.009,1.1.621.315,2.045-.157,1.573-2.045.629-.472,1.1.944.472.314,1.573,1.258.944,1.1.472.787,1.888.786,1.416,1.573,1.1,1.573.472,1.258.786.472,1.416-.157,1.888-.472,2.045-.787,1.1-1.888.315-1.258-.786-1.1-1.258-.629-.944-1.73,1.258-1.73.944-1.1,1.416-.786,1.573-.787,1.573-.224,1.416-.853,1.73v1.1l.578,1.258.564.629.125,1.1-.645,1.259-.637,1.1.153,1.573.784,1.73,1.257,1.536,1.886.278H982.1l1.1.469,1.73,1.611,1.258,1.749.472,1.582.629,2.049.472,2.325.944.595h3.932l1.1.312-.314,2.948.713,1.238.713.766v2.674l.427,1.573.961.943,2.368-1.258,1.577-.629,1.732.157s2.705,1.305,3.961,1.046" transform="translate(-686.835 -821.555)" fill="none" stroke="#bfbfbf" stroke-width="2"/>
        <path id="Path_6402" data-name="Path 6402" d="M410.577,1633.54l2.281-2.831,1.77-1.022,2.222,1.062,1.425,1.71.477,2.192,1.1.624,1.574-.789.787-1.732.629-1.1,2.045.157,1.258.629,1.416-1.1.629-1.73.472-1.258.472-1.73-.315-1.73.787-1.1.943-.63,1.1-1.887-.315-1.888-1.1-1.573-1.416-.472-.629-.944-.315-2.045-.944-1.573-.944-1.259s1.1-1.573,2.517-.943,2.045-1.258,2.359-1.73a11.922,11.922,0,0,1,2.2-1.573l1.416,2.045s1.888.629,2.359.315a8.761,8.761,0,0,0,1.258-2.359l1.1-1.73,1.887-.315,1.73-.629.472-2.045.629-1.565,1.416-.464h1.415l1.259,1.368.786,1.51,2.517.126,1.258-.959.315-1.927,2.674-.118H461.7l.629-2.406-.629-2.108.629-1.762-.629-2.061-.315-2.524,1.73-1.577,2.045.942,3.46,1.728,3.3-.317h3.775l2.517-.038,1.887-.373.315-2-.629-1.448.629-2.077h2.045l1.1-1.87,1.573-1.368,2.086-.133,1.374.169,1.416-1.724.629-2.042,2.045-.785,1.73-.786.786-1.887-.472-3.617L497.4,1570l1.573.472,1.572-.944.471-2.2v-1.573s-2-1.573,1.928-1.258l2.655-.943.462,1.887,1.253.786,1.885.472,2.043-.273.628-5.935h3.46l1.1-2.912,1.1-1.574,1.416-1.573.472-1.574-1.258-1.887-1.258-1.1-.472-1.73,1.258-1.573.786-.786.315-2.359.314-1.89,1.258-.318h1.573l.944,1.222.787,1.279,1.219-.383.747-1.012v-4.073h3.224l.631-2.219v-3.775c0-.472.353-2.359.353-2.359l.609-1.573-1.111-2.674,2.354-.629,1.1,1.573,4.56,1.1,1.887.157,1.1.944,1.258,1.416.314,1.73,1.73,1.887,1.416,1.33,2.045,1.015h1.73l3.3.519,1.258-3.241,2.517,1.37,1.573,1.055h1.888l1.888-1.063,1.887-2.065,4.089.776,2.045,2.826.953,1.57.482,1.1v1.73l-.243,1.887-.617,1.573-1.074,1.73-.3.786,1.157,1.258,1.078.314v2.674l-.757,3.3,2.1,1.888,1.915.944,4.575-.157" transform="translate(-288.801 -1072.698)" fill="none" stroke="#bfbfbf" stroke-width="2"/>
        <path id="Path_6403" data-name="Path 6403" d="M838.418,1676.029l1.352,2.391-.9,2.554-1.71,1.239-1.721,1.091-.939,1.568-.469,2.829-.785,2.358-1.258,1.149-1.73.991h-2.2l-1.73.7-1.1.624-.786,1.571-1.573.785-2.831.471-1.73,1.1-1.259,1.573-1.887.786-3.146.314-1.416-1.73-1.1-.315-.944,1.055-1.1,1.37h-1.887l-1.1,1.108.629,1.615.943.808,1.573.482,1.258-.466.944.474-.157,2.361-.944,1.259-1.888-.629-1.888-.629-1.416-.786-1.1-1.73-.786-1.655-1.1-1.026h-1.416l-2.2.829-1.415,1.162-.472,1.525.944,1.234.786,1.246-.315,2.039-1.415.626-1.374-.316-1.3-1.259-1.573-.158-5.819,2.516-4.4,1.1-3.147,1.258-1.417,1.415v5.977l-.469,1.566h-2.2l-2.517-.272-2.045.611-1.416,1.25-1.1,1.254a3.807,3.807,0,0,1-3.3,2.357,34.647,34.647,0,0,1-5.82-.316s-4.719-.944-5.82.629-2.2,2.831-2.2,2.831l-1.73,1.573-3.146.315a77.008,77.008,0,0,0-8.022-.315c-2.674.157-2.989-1.416-3.932-2.831a7.152,7.152,0,0,1-.864-3.618,25.727,25.727,0,0,0,.395-2.674v-2.989l1.532-1.887.333-1.258-1.249-.472-2.355.314-1.885-.629,1.574-2.831,1.416-.943.472-.944-.314-1.416-.629-1.259-.786-1.887.314-10.853-2.516-1.573,2.045-3.46,2.2-1.573,1.888-1.258,1.73-.786.629-1.573-1.573-1.1-2.045-.787-1.73.157.157-2.359.944-1.573,1.1-.786.629-1.73.759-1.76.916-1.072v-1.1l-1.483-.786v-2.516l.494-5.938" transform="translate(-511.869 -1170.896)" fill="none" stroke="#bfbfbf" stroke-width="2"/>
        <path id="Path_6404" data-name="Path 6404" d="M442.263,1909.235l3.166-.944,2.746-2.2a2.992,2.992,0,0,0,.387-1.416V1900.9l-1.282-1.415,1.129-1.416.525-.629-.956-1.73-.636-1.573.311-1.416,1.257-1.887-.473-3.618" transform="translate(-311.089 -1327.473)" fill="none" stroke="#bfbfbf" stroke-width="2"/>
        <path id="Path_6405" data-name="Path 6405" d="M691.886,1876.421h-4.137l-4.4-.5-1.573.5-.416,1.349-.888,1.191v1.258l1.085,1.416-.6,1.73-1.4,1.1-.779,1.415-.782,1.73,1.417,1.888,1.417,1.73,1.469,1.573.84,2.045v2.674l-.8,2.359-1.619.944-1.439-1.1-1.9-.629-2.365-.944-1.891.786-.788,1.416.786,1.416.943,1.1.315,1.73-.472,1.259-1.573,1.73-.315,2.045.315,1.888,1.258,1.1,1.573.944,1.258.629-.315,1.888.315,2.2.944,1.888,1.573.472,1.416-.472.786-1.406,1.573-1.406H684.6l1.258,1.367,1.415.329,1.573-.779,1.573.161,1.258,1.26-.629,2.046-2.517.944-1.1,1.573-.315,1.4-.786.3h-4.876l-1.888-.99-1.416-1.383H676.9l.157,1.713.944,2,.154,1.706-.947,1.863v1.887l1.264,1.808h1.888l1.258-1.88,1.258-2.273h1.415l1.573.425,1.552-.063.765,1.353v1.73l2.087.707h1.888l2.2-.628,1.888-1.062,1.416-1.474.944-1.708,1.73-.763h1.416l.944,1.688,1.258.981h2.359l.786.383-.629,1.8-.472,1.531s0,.451,1.1,1.08a8.6,8.6,0,0,1,2.2,2.349l2.989-.32,1.416.784-.472,3.144-.315,2.359,2.674,1.73,2.045.944.472,2.674-1.573,2.988-1.416,1.259-2.517,1.258-1.73,1.573-1.258,1.888.472,2.359,2.045,1.887,2.516.944,1.73-1.416.314-1.887,1.416-1.259,1.1-1.73.472-2.045,1.1-2.2,1.1-1.258,2.045-1.259,1.887.315,1.258.944,2.2.472,2.2.157,1.887.315,1.573-1.573.944-1.573,2.045-.472,1.573-.472.944-1.259.786-2.045,2.359-.157,1.887,1.258,2.517.63,1.888-.63,2.517-.944,1.887-1.415,1.888-1.259,1.415-2.831.472-2.989,1.416-.944,2.2.157,3.642.739" transform="translate(-472.701 -1319.527)" fill="none" stroke="#bfbfbf" stroke-width="2"/>
        <path id="Path_6406" data-name="Path 6406" d="M504.463,2156.01l2.61-.553s1.895-.512,2.367.2a11.312,11.312,0,0,0,2.835,1.867l1.182,1.405,2.031.467.851,1.315v1.573l.347,1.117,1.218.944.727,1.887,1.729,1.18,1.022,1.18v1.871l1.129,1.217,1.8,1.2h3.268l1.215.655.472,2.01.708,1.83s3.3-.264,4.246-.5a2.053,2.053,0,0,1,2.123,1.166,7.143,7.143,0,0,0,1.416,1.408l2.123,1.884,2.846.706s1.195.706,1.195,1.414v2.58l-3.448.723-1.594,1.651v1.4l1.709.868h1.932l1.337.485,1.213.629.472,1.612-.472,1.867s.944,1.877,2.6,1.877,2.595.231,3.067.939,1.651,2.357,1.651,2.357l-.708,2.122-1.416.235.236,1.651,1.887.708,1.794.708,1.31,1.415v1.716l-.277,1.587-1.054,1.179-1.3,1.18a66.788,66.788,0,0,0,1.3,7.785c.584,1.652,1.528,2.36,2.943,2.36s3.067-1.888,3.067-1.888l1.416-.708,2.317-.236,1.374,1.887v2.424l-.453,1.822-.675,1.18.488,1.651-.186,1.652-.657,2.359v1.874l-.262,2.372-.5,1.415,1.165,1.18,2.116.472,1.32.944.612,2.123v2.662l-1.071,2.057-1.26,2.359-1.692,1.651-1.2,1.652-1.425,1.651,1.175,2.123,1.177,1.416.47,1.652-1.18,2.359-.236,1.18,1.415,1.416a3.684,3.684,0,0,1,0,2.359c-.472.944-1.415,2.6-1.415,2.6l-3.067,6.842" transform="translate(-354.841 -1516.029)" fill="none" stroke="#bfbfbf" stroke-width="2"/>
        <path id="Path_6407" data-name="Path 6407" d="M686.557,2151.482l-2.495-1.013-2.129-1.787-1.654,2.124-2.833-2.358-2.832,1.18a15.681,15.681,0,0,1-.236,3.067,3.3,3.3,0,0,1-1.18.944l-2.6-.708-1.416,1.416-.426,2.359,1.226,2.124v2.106l-1.956,1.9-1.191,1.18.938,1.652,2.356.236.942.708,2.123.944-.236,2.359-1.18,1.416-2.359,1.179-1.888.708-1.415,1.18-.944,2.831-1.651.236-1.416-.944-1.651-.471-2.123,1.179-1.888,1.416-2.123-2.124-1.415-.708-1.888,1.18-.708,2.359-1.18,2.123a18.3,18.3,0,0,0-2.123-.236c-.708,0-2.6-.236-2.6-.236l-1.887.236s-.708-2.123-3.539-1.652" transform="translate(-449.468 -1511.226)" fill="none" stroke="#bfbfbf" stroke-width="2"/>
        <path id="Path_6408" data-name="Path 6408" d="M1578.322,861.834s1.73-1.1,2.2.629,3.3,3.3,3.932,3.3,2.831-1.258,3.46-.472,2.2,1.1,2.831,0,1.573-2.674,2.831-2.517a42.254,42.254,0,0,0,4.561,0" transform="translate(-1110.197 -605.974)" fill="none" stroke="#bfbfbf" stroke-width="2.652"/>
        <path id="Path_6409" data-name="Path 6409" d="M469.513,1331.835l2.3,2.033,1.75-.506,1.268-1.647,1.735-1.21,1.89-.634,1.732.784.472,1.886a2.589,2.589,0,0,1,.787.943,13.172,13.172,0,0,1,0,2.516l-1.258,1.258-.629.629,1.573,2.517,2.359.943,3.775-.314,2.674.314,2.045,1.416,4.561,4.719,3.618.308,2.517-.793h2.989l2.831.89h4.719l2.988-.241,1.258,1.1,1.73.942.629,2.516-.786,2.044.157,1.584,2.2.954h1.73l2.2-1.308,1.354-2.109,4.814-.536v-3.3l1.831-1.887.876-1.1.281-2.359,4.7-1.573,2.508-2.753,1.726-1.022,1.414,1.022,3.931-1.494,4.366.944.906,2.045v2.2s1.649.315-.71.786l-2.361.472.471,2.2,1.415,1.73,3.46,1.73,6.763-1.73,2.517-.944,2.045-2.2,2.517-1.573,2.517-.509,2.2.509.944,1.887,1.73.787,2.359.944,2.674-.158,2.674-.786,1.573-1.1.629-2.082,2.517-.435,1.888-.472.943-1.1,1.416-1.652,3.46,1.337,3.46.787.786,2.359,1.258,1.573,2.674-.786,1.73-.786,2.359.629,1.73.787,2.517-.944,2.674-2.2,4.247,1.573,1.573,3.46-.472,2.359,3.775.157,3.177,1.164" transform="translate(-330.257 -935.437)" fill="none" stroke="#bfbfbf" stroke-width="2"/>
        <path id="Path_6410" data-name="Path 6410" d="M1722.948,896.339l.94,3.555.47,2.367-.709,3.307-1.408,2.833-1.74,2.484v1.7" transform="translate(-1210.205 -630.488)" fill="none" stroke="#bfbfbf" stroke-width="2"/>
        <path id="Path_6411" data-name="Path 6411" d="M1728.806,953.519l3.763-2.6,3.769-3.778,3.3-2.343,3.536-.927h2.342l1.432.943,1.416.83,2.831-.586h1.871l3.083-.3h1.95l1.353,1.756,1.18.546,1.651-.907.944,2.142,2.123-.227,2.595-2.591,1.651-1.684,1.416-2.122,1.652.979,1.179.708,1.18-2.385,1.887-2.149h5.411l2.846-1.176,1.415,1.2-.944,1.9-.943,1.185.392,1.654-.315,2.362v2.167l2.21.664s2.159-1.415,3.575-.943a11.212,11.212,0,0,1,3.321,2.595l2.84.472-.231,2.627.911,1.62,2.8.472v2.561l-1.884,2.393-2.089,1.887-3.286,2.6-2.351,1.067" transform="translate(-1216.047 -659.547)" fill="none" stroke="#bfbfbf" stroke-width="2"/>
        <path id="Path_6412" data-name="Path 6412" d="M1901.6,780.917a9.812,9.812,0,0,0,6.329.018c3.3-1.18,8.945-4,8.945-4l4.472.712,1.882,1.89,3.536-.458,3.538-1.427,4.01-.707,2.831.472,2.359-1.18,1.18-2.123.708-2.123,1.18-1.888,3.067-2.359,2.6-2.359,1.416-1.888.472-2.123-.708-2.831a8.808,8.808,0,0,1,4.954-.708c2.595.472,9.437-3.3,10.38-3.775s5.662-2.743,5.662-2.743l3.775-1.563h4.078l2.764-2.7,2.123-1.449s6.134-2.848,4.954-.017-2.831,6.361-2.831,6.361l.653,2.827,1.361,1.647V758.5l2.616.509,1.46.708-.686,2.359-1.876.981-1.876.038h-1.9l-1.876.924-2.359.326-2.123,3.82-2.123,1.91-4.011,1.663-2.6,2.6-3.067,1.182-.943-.234s-1.651,4.719-2.831,5.191-5.426,1.416-5.426,1.416l-.944,2.124-1.651,3.3-2.123,1.18-.944-.708-5.19,9.437.708,4.011-.236,2.6-1.888,1.416-2.123-3.539-8.965,11.324.236,3.775,2.6.472.471,2.123-2.566,3.067-1.151,3.067v2.011l-.73,2.235-2.377,1.887-1.425,2.123.232,2.6s.279-4.482.043,2.831-.193,3.539-.193,3.539v3.82l.158,5.973,3.054,1.3h2.346l2.979.493,2.7.868" transform="translate(-1337.595 -523.563)" fill="none" stroke="#bfbfbf" stroke-width="2"/>
        <path id="Path_6413" data-name="Path 6413" d="M2143.076,835.835l.727,3.115.944,3.775.944,2.359,1.18,1.651" transform="translate(-1507.446 -587.93)" fill="none" stroke="#bfbfbf" stroke-width="2"/>
        <path id="Path_6414" data-name="Path 6414" d="M2023.012,969.514l1.891,2.112,2.124.938,1.652-1.89.944-2.361.472-1.888.236-3.067,3.539-.472,2.831-.472,1.887.472,1.652.708,2.123-.708,2.123-1.415,1.416-2.123,2.206-1.651.555,3.775v1.7l4.405,1.607" transform="translate(-1422.993 -673.647)" fill="none" stroke="#bfbfbf" stroke-width="2"/>
        <path id="Path_6415" data-name="Path 6415" d="M1927.242,1072.6l.569,2.479,1.889,1.42-.471,2.833-.235,2,2.36,1.058h2.344l1.194,2.5,2.359-1.6.944-2.333,1.18-1.874.536-2.117,1.587-2.356,1.651,2.6,4.311.283" transform="translate(-1355.628 -754.472)" fill="none" stroke="#bfbfbf" stroke-width="2"/>
        <path id="Path_6416" data-name="Path 6416" d="M1936.628,1106.331l.236,4.515-.236,3.539.236,3.3-2.123,4.482" transform="translate(-1360.902 -778.197)" fill="none" stroke="#bfbfbf" stroke-width="2"/>
      </g>
    </g>
    <g id="Group_2008" data-name="Group 2008" transform="translate(590 930.478)">
      <g id="Group_2007" data-name="Group 2007" clip-path="url(#clip-path-2)">
        <path id="Path_6448" data-name="Path 6448" d="M16.455,75.471a.284.284,0,0,0-.223-.028.469.469,0,0,1-.338,0,1.082,1.082,0,0,0-.183.154.726.726,0,0,1,.154.047.8.8,0,0,1,.424.812v.016a.3.3,0,0,0,.082-.041.717.717,0,0,0,.305-.706.432.432,0,0,0-.221-.255" fill="#e3e3e3"/>
        <path id="Path_6449" data-name="Path 6449" d="M16.455,75.471a.284.284,0,0,0-.223-.028.469.469,0,0,1-.338,0,1.082,1.082,0,0,0-.183.154.726.726,0,0,1,.154.047.8.8,0,0,1,.424.812v.016a.3.3,0,0,0,.082-.041.717.717,0,0,0,.305-.706A.432.432,0,0,0,16.455,75.471Z" fill="#e3e3e3" stroke="#000" stroke-linecap="round" stroke-linejoin="round" stroke-width="0.25"/>
        <path id="Path_6450" data-name="Path 6450" d="M6.633,59.446l-.479-.056a.5.5,0,0,1-.148-.042.29.29,0,0,0-.1.131.158.158,0,0,0-.014.119c.116.211.507.238.765.116.177-.082.316-.233.309-.339l-.008-.009a.49.49,0,0,1-.324.08" fill="#e3e3e3"/>
        <path id="Path_6451" data-name="Path 6451" d="M6.633,59.446l-.479-.056a.5.5,0,0,1-.148-.042.29.29,0,0,0-.1.131.158.158,0,0,0-.014.119c.116.211.507.238.765.116.177-.082.316-.233.309-.339l-.008-.009A.49.49,0,0,1,6.633,59.446Z" fill="#e3e3e3" stroke="#000" stroke-linecap="round" stroke-linejoin="round" stroke-width="0.25"/>
        <path id="Path_6452" data-name="Path 6452" d="M.96,37.2a.363.363,0,0,0-.3.049.459.459,0,0,1-.134.072A3.4,3.4,0,0,0,.592,40.65a.522.522,0,0,0,.141.176c-.015-.012.078-.082.186-.283a6.057,6.057,0,0,0,.6-1.671,1.892,1.892,0,0,0-.087-1.34A.745.745,0,0,0,.96,37.2" fill="#e3e3e3"/>
        <path id="Path_6453" data-name="Path 6453" d="M.96,37.2a.363.363,0,0,0-.3.049.459.459,0,0,1-.134.072A3.4,3.4,0,0,0,.592,40.65a.522.522,0,0,0,.141.176c-.015-.012.078-.082.186-.283a6.057,6.057,0,0,0,.6-1.671,1.892,1.892,0,0,0-.087-1.34A.745.745,0,0,0,.96,37.2Z" fill="#e3e3e3" stroke="#000" stroke-linecap="round" stroke-linejoin="round" stroke-width="0.25"/>
        <path id="Path_6454" data-name="Path 6454" d="M4.142,16.8a1.13,1.13,0,0,0-.156-.077,1.618,1.618,0,0,1-.381-.218,1.4,1.4,0,0,1-.179-1.8,4.482,4.482,0,0,1,.4-.548,2.848,2.848,0,0,0,.344-.483c.384-.756-.095-1.606-.65-2.591s-1.2-2.133-.836-3.315a4.719,4.719,0,0,1,1.033-1.6c.575-.671.92-1.108.754-1.591A2.1,2.1,0,0,0,4.083,4a2.122,2.122,0,0,1-.61-1.229,2.849,2.849,0,0,1,.488-1.3A4.212,4.212,0,0,0,4.507.125a3.242,3.242,0,0,0-.561.06c-.98.2-1.442,2.456-1.472,3.622-.01.413,0,.834.005,1.253a8.608,8.608,0,0,1-.635,4.257.477.477,0,0,1-.9-.172,1.573,1.573,0,0,0,.354.936c.05.058.105.113.16.168a1.971,1.971,0,0,1,.517.728,2.03,2.03,0,0,1-.09,1.31,6.341,6.341,0,0,0-.04,3.652.909.909,0,0,1,.5.2,1.415,1.415,0,0,1,.376,1.709,3.442,3.442,0,0,1-.635.756,1.9,1.9,0,0,0-.515.653,1.89,1.89,0,0,0,.024.876,5.406,5.406,0,0,1,.076.615A1.768,1.768,0,0,1,1.1,22.137a1.114,1.114,0,0,1-.338.2,8.509,8.509,0,0,0,1.467,4.482,19.746,19.746,0,0,1,.943-3.894,2.184,2.184,0,0,1-1.116-2.049A3.629,3.629,0,0,1,3.3,18.546l.218-.2a3,3,0,0,0,.684-.793c.126-.252.126-.628-.063-.753" fill="#e3e3e3"/>
        <path id="Path_6455" data-name="Path 6455" d="M4.142,16.8a1.13,1.13,0,0,0-.156-.077,1.618,1.618,0,0,1-.381-.218,1.4,1.4,0,0,1-.179-1.8,4.482,4.482,0,0,1,.4-.548,2.848,2.848,0,0,0,.344-.483c.384-.756-.095-1.606-.65-2.591s-1.2-2.133-.836-3.315a4.719,4.719,0,0,1,1.033-1.6c.575-.671.92-1.108.754-1.591A2.1,2.1,0,0,0,4.083,4a2.122,2.122,0,0,1-.61-1.229,2.849,2.849,0,0,1,.488-1.3A4.212,4.212,0,0,0,4.507.125a3.242,3.242,0,0,0-.561.06c-.98.2-1.442,2.456-1.472,3.622-.01.413,0,.834.005,1.253a8.608,8.608,0,0,1-.635,4.257.477.477,0,0,1-.9-.172,1.573,1.573,0,0,0,.354.936c.05.058.105.113.16.168a1.971,1.971,0,0,1,.517.728,2.03,2.03,0,0,1-.09,1.31,6.341,6.341,0,0,0-.04,3.652.909.909,0,0,1,.5.2,1.415,1.415,0,0,1,.376,1.709,3.442,3.442,0,0,1-.635.756,1.9,1.9,0,0,0-.515.653,1.89,1.89,0,0,0,.024.876,5.406,5.406,0,0,1,.076.615A1.768,1.768,0,0,1,1.1,22.137a1.114,1.114,0,0,1-.338.2,8.509,8.509,0,0,0,1.467,4.482,19.746,19.746,0,0,1,.943-3.894,2.184,2.184,0,0,1-1.116-2.049A3.629,3.629,0,0,1,3.3,18.546l.218-.2a3,3,0,0,0,.684-.793C4.331,17.3,4.331,16.92,4.142,16.8Z" fill="#e3e3e3" stroke="#000" stroke-linecap="round" stroke-linejoin="round" stroke-width="0.25"/>
        <path id="Path_6456" data-name="Path 6456" d="M18.329,72.513a2.433,2.433,0,0,1-.2-.28,1.613,1.613,0,0,1-.163-.493.844.844,0,0,0-.052-.2.512.512,0,0,0-.188.16.489.489,0,0,1,0,.183,6.475,6.475,0,0,0-.1,1.3V73.2a.727.727,0,0,1,.282-.293.912.912,0,0,1,.273-.1.2.2,0,0,0,.141-.132.206.206,0,0,0,0-.169" fill="#e3e3e3"/>
        <path id="Path_6457" data-name="Path 6457" d="M18.329,72.513a2.433,2.433,0,0,1-.2-.28,1.613,1.613,0,0,1-.163-.493.844.844,0,0,0-.052-.2.512.512,0,0,0-.188.16.489.489,0,0,1,0,.183,6.475,6.475,0,0,0-.1,1.3V73.2a.727.727,0,0,1,.282-.293.912.912,0,0,1,.273-.1.2.2,0,0,0,.141-.132A.206.206,0,0,0,18.329,72.513Z" fill="#e3e3e3" stroke="#000" stroke-linecap="round" stroke-linejoin="round" stroke-width="0.25"/>
        <path id="Path_6458" data-name="Path 6458" d="M24.422,86.671a1.393,1.393,0,0,0-1.556-.746.475.475,0,0,1-.533-.12.938.938,0,0,0-.207.325.844.844,0,0,0,.019.683,2.3,2.3,0,0,0,.483.537,2.619,2.619,0,0,1,1.012,1.888c.027.15.054.3.092.448.089.344.31.7.56.705.165.041.377-.17.468-.4a2.694,2.694,0,0,0,.093-1.037,5.035,5.035,0,0,0-.431-2.279" fill="#e3e3e3"/>
        <path id="Path_6459" data-name="Path 6459" d="M24.422,86.671a1.393,1.393,0,0,0-1.556-.746.475.475,0,0,1-.533-.12.938.938,0,0,0-.207.325.844.844,0,0,0,.019.683,2.3,2.3,0,0,0,.483.537,2.619,2.619,0,0,1,1.012,1.888c.027.15.054.3.092.448.089.344.31.7.56.705.165.041.377-.17.468-.4a2.694,2.694,0,0,0,.093-1.037A5.035,5.035,0,0,0,24.422,86.671Z" fill="#e3e3e3" stroke="#000" stroke-linecap="round" stroke-linejoin="round" stroke-width="0.25"/>
      </g>
    </g>
    <g id="Group_2011" data-name="Group 2011">
      <g id="Group_2010" data-name="Group 2010" transform="translate(177 893)">
        <g id="Group_2009" data-name="Group 2009" transform="translate(0 0)" clip-path="url(#clip-path-3)">
          <path id="Path_6460" data-name="Path 6460" d="M1.5,10.885a.526.526,0,0,0-.413-.052.869.869,0,0,1-.626,0,2.006,2.006,0,0,0-.339.285,1.344,1.344,0,0,1,.285.087,1.487,1.487,0,0,1,.786,1.5v.03a.556.556,0,0,0,.152-.076,1.328,1.328,0,0,0,.565-1.309.8.8,0,0,0-.41-.473" transform="translate(0.107 9.225)" fill="#e3e3e3"/>
          <path id="Path_6461" data-name="Path 6461" d="M1.5,10.885a.526.526,0,0,0-.413-.052.869.869,0,0,1-.626,0,2.006,2.006,0,0,0-.339.285,1.344,1.344,0,0,1,.285.087,1.487,1.487,0,0,1,.786,1.5v.03a.556.556,0,0,0,.152-.076,1.328,1.328,0,0,0,.565-1.309A.8.8,0,0,0,1.5,10.885Z" transform="translate(0.107 9.225)" fill="#e3e3e3" stroke="#000" stroke-linecap="round" stroke-linejoin="round" stroke-width="0.25"/>
          <path id="Path_6462" data-name="Path 6462" d="M4.313,10.591a4.509,4.509,0,0,1-.376-.519,2.99,2.99,0,0,1-.3-.914,1.565,1.565,0,0,0-.1-.369.949.949,0,0,0-.348.3.906.906,0,0,1,.006.339,12,12,0,0,0-.178,2.411v.035a1.348,1.348,0,0,1,.523-.543,1.691,1.691,0,0,1,.506-.18.377.377,0,0,0,.261-.245.383.383,0,0,0,.006-.313" transform="translate(2.571 7.501)" fill="#e3e3e3"/>
          <path id="Path_6463" data-name="Path 6463" d="M4.313,10.591a4.509,4.509,0,0,1-.376-.519,2.99,2.99,0,0,1-.3-.914,1.565,1.565,0,0,0-.1-.369.949.949,0,0,0-.348.3.906.906,0,0,1,.006.339,12,12,0,0,0-.178,2.411v.035a1.348,1.348,0,0,1,.523-.543,1.691,1.691,0,0,1,.506-.18.377.377,0,0,0,.261-.245A.383.383,0,0,0,4.313,10.591Z" transform="translate(2.571 7.501)" fill="#e3e3e3" stroke="#000" stroke-linecap="round" stroke-linejoin="round" stroke-width="0.25"/>
          <path id="Path_6464" data-name="Path 6464" d="M4.309,20.6a.9.9,0,0,0,.152-.1l-.4-.751Z" transform="translate(3.468 16.858)" fill="#e3e3e3"/>
          <path id="Path_6465" data-name="Path 6465" d="M4.309,20.6a.9.9,0,0,0,.152-.1l-.4-.751Z" transform="translate(3.468 16.858)" fill="#e3e3e3" stroke="#000" stroke-linecap="round" stroke-linejoin="round" stroke-width="0.25"/>
          <path id="Path_6466" data-name="Path 6466" d="M8.349,5.61l-.888-.1a.878.878,0,0,1-.274-.078A.538.538,0,0,0,7,5.671a.293.293,0,0,0-.026.221c.215.391.94.441,1.418.215.328-.15.586-.432.573-.628l-.015-.017a.908.908,0,0,1-.6.148" transform="translate(5.941 4.633)" fill="#e3e3e3"/>
          <path id="Path_6467" data-name="Path 6467" d="M8.349,5.61l-.888-.1a.878.878,0,0,1-.274-.078A.538.538,0,0,0,7,5.671a.293.293,0,0,0-.026.221c.215.391.94.441,1.418.215.328-.15.586-.432.573-.628l-.015-.017A.908.908,0,0,1,8.349,5.61Z" transform="translate(5.941 4.633)" fill="#e3e3e3" stroke="#000" stroke-linecap="round" stroke-linejoin="round" stroke-width="0.25"/>
          <path id="Path_6468" data-name="Path 6468" d="M9.443,4.617A4.509,4.509,0,0,1,9.066,4.1a2.932,2.932,0,0,1-.3-.914,1.552,1.552,0,0,0-.1-.369.949.949,0,0,0-.348.3.906.906,0,0,1,.006.339,12,12,0,0,0-.178,2.411V5.9a1.348,1.348,0,0,1,.523-.543,1.691,1.691,0,0,1,.506-.18.377.377,0,0,0,.261-.245.383.383,0,0,0,.006-.313" transform="translate(6.949 2.403)" fill="#e3e3e3"/>
          <path id="Path_6469" data-name="Path 6469" d="M9.443,4.617A4.509,4.509,0,0,1,9.066,4.1a2.932,2.932,0,0,1-.3-.914,1.552,1.552,0,0,0-.1-.369.949.949,0,0,0-.348.3.906.906,0,0,1,.006.339,12,12,0,0,0-.178,2.411V5.9a1.348,1.348,0,0,1,.523-.543,1.691,1.691,0,0,1,.506-.18.377.377,0,0,0,.261-.245A.383.383,0,0,0,9.443,4.617Z" transform="translate(6.949 2.403)" fill="#e3e3e3" stroke="#000" stroke-linecap="round" stroke-linejoin="round" stroke-width="0.25"/>
          <path id="Path_6470" data-name="Path 6470" d="M12.391.2a.526.526,0,0,0-.413-.052.869.869,0,0,1-.626,0,2.006,2.006,0,0,0-.339.285A1.344,1.344,0,0,1,11.3.525a1.487,1.487,0,0,1,.786,1.5v.03a.556.556,0,0,0,.152-.076A1.328,1.328,0,0,0,12.8.675.8.8,0,0,0,12.391.2" transform="translate(9.398 0.108)" fill="#e3e3e3"/>
          <path id="Path_6471" data-name="Path 6471" d="M12.391.2a.526.526,0,0,0-.413-.052.869.869,0,0,1-.626,0,2.006,2.006,0,0,0-.339.285A1.344,1.344,0,0,1,11.3.525a1.487,1.487,0,0,1,.786,1.5v.03a.556.556,0,0,0,.152-.076A1.328,1.328,0,0,0,12.8.675.8.8,0,0,0,12.391.2Z" transform="translate(9.398 0.108)" fill="#e3e3e3" stroke="#000" stroke-linecap="round" stroke-linejoin="round" stroke-width="0.25"/>
          <path id="Path_6472" data-name="Path 6472" d="M6.133,18.964a.894.894,0,0,0,.152-.1l-.4-.751Z" transform="translate(5.025 15.458)" fill="#e3e3e3"/>
          <path id="Path_6473" data-name="Path 6473" d="M6.133,18.964a.894.894,0,0,0,.152-.1l-.4-.751Z" transform="translate(5.025 15.458)" fill="#e3e3e3" stroke="#000" stroke-linecap="round" stroke-linejoin="round" stroke-width="0.25"/>
        </g>
      </g>
    </g>
  </g>
</svg>
