<svg id="noun-drinking-water-2817246" xmlns="http://www.w3.org/2000/svg" width="72.711" height="95.241" viewBox="0 0 72.711 95.241">
  <g id="Group_1995" data-name="Group 1995" transform="translate(0 0)">
    <g id="Group_1994" data-name="Group 1994">
      <g id="Group_1993" data-name="Group 1993">
        <path id="Path_6446" data-name="Path 6446" d="M34.738-.457A146.355,146.355,0,0,0,23.168-19.8,235.5,235.5,0,0,0,6.512-41.37,3.557,3.557,0,0,0,3.718-42.6l-.168.056a1.289,1.289,0,0,0-.168,0A3.4,3.4,0,0,0,1.091-41.37l-.056.056A243.042,243.042,0,0,0-15.621-19.8,163.27,163.27,0,0,0-27.3-.289q-4.189,8.658-4.807,13.861a40.768,40.768,0,0,0-.224,9.111v.056a31.468,31.468,0,0,0,10.508,20.01A36.306,36.306,0,0,0,3.83,52.641a36.306,36.306,0,0,0,25.655-9.893,31.516,31.516,0,0,0,10.731-24.09q.033-7.917-5.477-19.115M20.877-18.231a144.036,144.036,0,0,1,11.346,19q5.165,10.488,5.2,17.886A28.843,28.843,0,0,1,27.584,40.68,33.58,33.58,0,0,1,3.83,49.846,33.58,33.58,0,0,1-19.925,40.68,28.858,28.858,0,0,1-29.538,22.4h0a38.662,38.662,0,0,1,.224-8.5Q-28.7,9.05-24.787.94A160.657,160.657,0,0,1-13.329-18.231a239.3,239.3,0,0,1,16.544-21.3h0a.892.892,0,0,1,.5-.224H3.55l.168-.056a.866.866,0,0,1,.671.279,232.474,232.474,0,0,1,16.488,21.3M21.1-1.184a3.635,3.635,0,0,0-2.627-1.174H-10.758a3.462,3.462,0,0,0-2.683,1.174l-.112.112a3.984,3.984,0,0,0-.838,2.739l.056.112,4.471,31.356H-9.92A3.307,3.307,0,0,0-8.634,35.37H-8.69a3.5,3.5,0,0,0,2.4.894H13.946a3.423,3.423,0,0,0,2.347-.894.049.049,0,0,1,.056-.056l.279-.279.112-.112a3.834,3.834,0,0,0,.727-1.789L21.995,1.779v.056a3.515,3.515,0,0,0-.782-2.906q-.056-.112-.112-.112M19.256,1.332v.056L17.747,11.839l-.168.056-4.136.615h-.056a10.2,10.2,0,0,1-1.509,0h-.056a13.841,13.841,0,0,1-5.366-1.286A20.854,20.854,0,0,0-1.424,9.1h-.224a21.938,21.938,0,0,0-3.13,0,33.421,33.421,0,0,0-5.589.838L-11.6,1.388a1.04,1.04,0,0,1,.224-.671.744.744,0,0,1,.615-.279H18.473a.9.9,0,0,1,.559.224,1.2,1.2,0,0,1,.224.671M-9.976,12.622l3.857-.615a23.231,23.231,0,0,1,5.31-.168,19.019,19.019,0,0,1,6.036,1.844A16.9,16.9,0,0,0,11.71,15.3a13.438,13.438,0,0,0,1.733,0h.112a8.2,8.2,0,0,0,.894-.056h.056q1.286-.224,2.795-.335l-2.571,17.83-.056.056a.9.9,0,0,1-.112.391.366.366,0,0,0-.168.168V33.3a.743.743,0,0,1-.447.168H-6.287a.817.817,0,0,1-.5-.168.049.049,0,0,0-.056-.056.974.974,0,0,1-.279-.5Z" transform="translate(32.495 42.6)" fill="#f7ecd4"/>
      </g>
    </g>
  </g>
</svg>
