<svg version="1.2" xmlns="http://www.w3.org/2000/svg" viewBox="0 0 71 55" width="71" height="55">
	<title>school-svg</title>
	<style>
		.s0 { fill: #254895 } 
	</style>
	<g id="Group_2016">
		<path id="home_FILL0_wght100_GRAD0_opsz48_1_" fill-rule="evenodd" class="s0" d="m0 53.3v-33q0-0.3 0-0.6 0.1-0.3 0.1-0.6 0.1-0.3 0.2-0.6 0.1-0.2 0.2-0.5 0.1-0.3 0.3-0.5 0.2-0.3 0.4-0.5 0.2-0.2 0.4-0.4 0.2-0.2 0.5-0.3l20-15.3q0.3-0.2 0.6-0.4 0.4-0.2 0.8-0.4 0.3-0.1 0.7-0.1 0.4-0.1 0.8-0.1 0.4 0 0.8 0.1 0.4 0 0.8 0.2 0.4 0.1 0.8 0.3 0.3 0.2 0.7 0.4l20 15.3q0.2 0.1 0.4 0.3 0.3 0.2 0.5 0.4 0.2 0.2 0.3 0.5 0.2 0.2 0.3 0.5 0.2 0.3 0.2 0.5 0.1 0.3 0.2 0.6 0.1 0.3 0.1 0.6 0 0.3 0 0.6v33q0 0.2 0 0.4-0.1 0.2-0.1 0.4-0.1 0.2-0.2 0.3-0.2 0.2-0.3 0.3-0.1 0.2-0.3 0.3-0.2 0.1-0.4 0.2-0.1 0.1-0.3 0.1-0.2 0.1-0.4 0.1h-15q-0.3 0-0.5-0.1-0.2 0-0.5-0.1-0.2-0.1-0.4-0.3-0.2-0.1-0.4-0.3-0.2-0.1-0.3-0.4-0.2-0.2-0.2-0.4-0.1-0.2-0.2-0.5 0-0.2 0-0.5v-19.6h-11.1v19.6q0 0.3 0 0.5 0 0.3-0.1 0.5-0.1 0.2-0.3 0.4-0.1 0.3-0.3 0.4-0.2 0.2-0.4 0.3-0.2 0.2-0.4 0.3-0.2 0.1-0.5 0.1-0.2 0.1-0.5 0.1h-14.9q-0.2 0-0.4-0.1-0.2 0-0.4-0.1-0.2-0.1-0.4-0.2-0.1-0.1-0.3-0.3-0.1-0.1-0.2-0.3-0.2-0.1-0.2-0.3-0.1-0.2-0.2-0.4 0-0.2 0-0.4zm2.1 0h15.4v-19.6q0-0.3 0-0.5 0.1-0.3 0.2-0.5 0.1-0.2 0.2-0.5 0.1-0.2 0.3-0.3 0.2-0.2 0.4-0.4 0.2-0.1 0.4-0.2 0.3-0.1 0.5-0.1 0.3-0.1 0.5-0.1h10.1q0.3 0 0.5 0.1 0.3 0 0.5 0.1 0.2 0.1 0.4 0.2 0.2 0.2 0.4 0.4 0.2 0.1 0.3 0.3 0.2 0.3 0.3 0.5 0.1 0.2 0.1 0.5 0 0.2 0 0.5v19.6h15.5v-33q0-0.2-0.1-0.4 0-0.2 0-0.3-0.1-0.2-0.1-0.4-0.1-0.1-0.2-0.3 0-0.2-0.1-0.3-0.1-0.1-0.3-0.3-0.1-0.1-0.2-0.2-0.1-0.2-0.2-0.3l-20.1-15.1q-0.2-0.1-0.4-0.2-0.2-0.1-0.4-0.2-0.2-0.1-0.5-0.1-0.2-0.1-0.4 0-0.3-0.1-0.5 0-0.2 0-0.5 0.1-0.2 0.1-0.4 0.2-0.2 0.1-0.4 0.2l-20 15.1q-0.2 0.1-0.3 0.3-0.1 0.1-0.2 0.2-0.1 0.2-0.2 0.3-0.1 0.1-0.2 0.3-0.1 0.2-0.2 0.3 0 0.2-0.1 0.4 0 0.1 0 0.3 0 0.2 0 0.4z"/>
		<path id="home_FILL0_wght100_GRAD0_opsz48_1_2" fill-rule="evenodd" class="s0" d="m21 53.3v-33q0-0.3 0-0.6 0.1-0.3 0.1-0.6 0.1-0.3 0.2-0.6 0.1-0.2 0.2-0.5 0.1-0.3 0.3-0.5 0.2-0.3 0.4-0.5 0.2-0.2 0.4-0.4 0.2-0.2 0.5-0.3l20-15.3q0.3-0.2 0.6-0.4 0.4-0.2 0.8-0.4 0.3-0.1 0.7-0.1 0.4-0.1 0.8-0.1 0.4 0 0.8 0.1 0.4 0 0.8 0.2 0.4 0.1 0.8 0.3 0.3 0.2 0.7 0.4l20 15.3q0.2 0.1 0.4 0.3 0.3 0.2 0.5 0.4 0.2 0.2 0.3 0.5 0.2 0.2 0.3 0.5 0.2 0.3 0.2 0.5 0.1 0.3 0.2 0.6 0.1 0.3 0.1 0.6 0 0.3 0 0.6v33q0 0.2 0 0.4-0.1 0.2-0.1 0.4-0.1 0.2-0.2 0.3-0.2 0.2-0.3 0.3-0.1 0.2-0.3 0.3-0.2 0.1-0.4 0.2-0.1 0.1-0.3 0.1-0.2 0.1-0.4 0.1h-15q-0.3 0-0.5-0.1-0.2 0-0.5-0.1-0.2-0.1-0.4-0.3-0.2-0.1-0.4-0.3-0.2-0.1-0.3-0.4-0.2-0.2-0.2-0.4-0.1-0.2-0.2-0.5 0-0.2 0-0.5v-19.6h-11.1v19.6q0 0.3 0 0.5 0 0.3-0.1 0.5-0.1 0.2-0.3 0.4-0.1 0.3-0.3 0.4-0.2 0.2-0.4 0.3-0.2 0.2-0.4 0.3-0.2 0.1-0.5 0.1-0.2 0.1-0.5 0.1h-14.9q-0.2 0-0.4-0.1-0.2 0-0.4-0.1-0.2-0.1-0.4-0.2-0.1-0.1-0.3-0.3-0.1-0.1-0.2-0.3-0.2-0.1-0.2-0.3-0.1-0.2-0.2-0.4 0-0.2 0-0.4zm2.1 0h15.4v-19.6q0-0.3 0-0.5 0.1-0.3 0.2-0.5 0.1-0.2 0.2-0.5 0.1-0.2 0.3-0.3 0.2-0.2 0.4-0.4 0.2-0.1 0.4-0.2 0.3-0.1 0.5-0.1 0.3-0.1 0.5-0.1h10.1q0.3 0 0.5 0.1 0.3 0 0.5 0.1 0.2 0.1 0.4 0.2 0.2 0.2 0.4 0.4 0.2 0.1 0.3 0.3 0.2 0.3 0.3 0.5 0.1 0.2 0.1 0.5 0 0.2 0 0.5v19.6h15.5v-33q0-0.2-0.1-0.4 0-0.2 0-0.3-0.1-0.2-0.1-0.4-0.1-0.1-0.2-0.3 0-0.2-0.1-0.3-0.1-0.1-0.3-0.3-0.1-0.1-0.2-0.2-0.1-0.2-0.2-0.3l-20.1-15.1q-0.2-0.1-0.4-0.2-0.2-0.1-0.4-0.2-0.2-0.1-0.5-0.1-0.2-0.1-0.4 0-0.3-0.1-0.5 0-0.2 0-0.5 0.1-0.2 0.1-0.4 0.2-0.2 0.1-0.4 0.2l-20 15.1q-0.2 0.1-0.3 0.3-0.1 0.1-0.2 0.2-0.1 0.2-0.2 0.3-0.1 0.1-0.2 0.3-0.1 0.2-0.2 0.3 0 0.2-0.1 0.4 0 0.1 0 0.3 0 0.2 0 0.4z"/>
	</g>
</svg>