<svg xmlns="http://www.w3.org/2000/svg" width="71.119" height="55.355" viewBox="0 0 71.119 55.355">
  <g id="Group_2016" data-name="Group 2016" transform="translate(-1106 -398.645)">
    <path id="home_FILL0_wght100_GRAD0_opsz48_1_" data-name="home_FILL0_wght100_GRAD0_opsz48 (1)" d="M214.057-710.7h15.428v-19.636a2.443,2.443,0,0,1,.726-1.8,2.443,2.443,0,0,1,1.8-.726h10.1a2.443,2.443,0,0,1,1.8.726,2.443,2.443,0,0,1,.726,1.8V-710.7h15.428V-743.74a2.814,2.814,0,0,0-.327-1.356,3.641,3.641,0,0,0-.888-1.075l-20.01-15.117a2.877,2.877,0,0,0-1.777-.561,2.877,2.877,0,0,0-1.777.561l-20.01,15.117a3.642,3.642,0,0,0-.888,1.075,2.814,2.814,0,0,0-.327,1.356Zm-2.057,0v-33.008a5.251,5.251,0,0,1,.491-2.291,4.248,4.248,0,0,1,1.566-1.73l20.01-15.241A4.515,4.515,0,0,1,237.03-764a4.754,4.754,0,0,1,3.022,1.029l20.01,15.241a4.248,4.248,0,0,1,1.566,1.73,5.251,5.251,0,0,1,.491,2.291V-710.7a1.968,1.968,0,0,1-.63,1.427,1.968,1.968,0,0,1-1.427.63H245.1a2.443,2.443,0,0,1-1.8-.726,2.443,2.443,0,0,1-.726-1.8v-19.636H231.543v19.636a2.443,2.443,0,0,1-.726,1.8,2.443,2.443,0,0,1-1.8.726H214.057a1.968,1.968,0,0,1-1.427-.63A1.968,1.968,0,0,1,212-710.7ZM237.06-736.416Z" transform="translate(894 1162.645)" fill="#254895"/>
    <path id="home_FILL0_wght100_GRAD0_opsz48_1_2" data-name="home_FILL0_wght100_GRAD0_opsz48 (1)" d="M214.057-710.7h15.428v-19.636a2.443,2.443,0,0,1,.726-1.8,2.443,2.443,0,0,1,1.8-.726h10.1a2.443,2.443,0,0,1,1.8.726,2.443,2.443,0,0,1,.726,1.8V-710.7h15.428V-743.74a2.814,2.814,0,0,0-.327-1.356,3.641,3.641,0,0,0-.888-1.075l-20.01-15.117a2.877,2.877,0,0,0-1.777-.561,2.877,2.877,0,0,0-1.777.561l-20.01,15.117a3.642,3.642,0,0,0-.888,1.075,2.814,2.814,0,0,0-.327,1.356Zm-2.057,0v-33.008a5.251,5.251,0,0,1,.491-2.291,4.248,4.248,0,0,1,1.566-1.73l20.01-15.241A4.515,4.515,0,0,1,237.03-764a4.754,4.754,0,0,1,3.022,1.029l20.01,15.241a4.248,4.248,0,0,1,1.566,1.73,5.251,5.251,0,0,1,.491,2.291V-710.7a1.968,1.968,0,0,1-.63,1.427,1.968,1.968,0,0,1-1.427.63H245.1a2.443,2.443,0,0,1-1.8-.726,2.443,2.443,0,0,1-.726-1.8v-19.636H231.543v19.636a2.443,2.443,0,0,1-.726,1.8,2.443,2.443,0,0,1-1.8.726H214.057a1.968,1.968,0,0,1-1.427-.63A1.968,1.968,0,0,1,212-710.7ZM237.06-736.416Z" transform="translate(915 1162.645)" fill="#254895"/>
  </g>
</svg>
