<svg xmlns="http://www.w3.org/2000/svg" width="49.597" height="66.318" viewBox="0 0 49.597 66.318">
  <g id="noun-student-1638261" transform="translate(0)">
    <path id="Path_6445" data-name="Path 6445" d="M52.455,44.207h-.186V40.253a.811.811,0,0,0-.024-.118,14.343,14.343,0,0,0,6.167-11.781c.981-5.081.425-8.921-1.654-11.417a7.943,7.943,0,0,0-5.362-2.76c-3.961-4.9-8.556-4.715-11.742-3.673-5.023,1.643-9.865,6.71-9.9,8.023a.827.827,0,0,0,.228.591c1.114,1.172,1.273,5.4,1.11,8.336a.755.755,0,0,0-.007.129c-.014.238-.03.471-.048.688a14.335,14.335,0,0,0,6.317,11.955c0,.009,0,.017,0,.026v3.954h-.105c-9.483,0-17.2,8.746-17.2,19.5v11.69a.828.828,0,0,0,.828.828H68.818a.828.828,0,0,0,.828-.828V63.7C69.647,52.951,61.935,44.207,52.455,44.207ZM41.967,11.651c3.221-.465,6.034.823,8.356,3.839a.834.834,0,0,0,.66.323h0a6.365,6.365,0,0,1,4.517,2.2,9.206,9.206,0,0,1,1.708,6.192,11.971,11.971,0,0,0-6.537-6.193.828.828,0,0,0-1.075.671,1.718,1.718,0,0,1-.706.89c-.852.614-2.693,1.2-6.612.478a9.048,9.048,0,0,0-9.5,3.966c-.086-2.03-.392-4.273-1.235-5.579C32.486,17.015,37.048,12.365,41.967,11.651ZM32.693,28.343c.01-.121.031-.393.052-.755.354-1.029,2.737-7.091,9.235-5.907,3.608.662,6.258.4,7.878-.763a3.714,3.714,0,0,0,.987-1.033,11.126,11.126,0,0,1,5.907,8.448A12.309,12.309,0,0,1,44.726,40.826,12.3,12.3,0,0,1,32.693,28.343ZM44.726,42.482a13.169,13.169,0,0,0,5.886-1.4v3.237l-.248.151a10.663,10.663,0,0,1-11.055.027l-.3-.181V41.166A13.172,13.172,0,0,0,44.726,42.482ZM67.991,74.567H21.7V63.705c0-9.838,6.972-17.842,15.542-17.842H38.37l.088.052a12.314,12.314,0,0,0,12.766-.031l.035-.021h1.2c8.567,0,15.536,8,15.536,17.836V74.567Z" transform="translate(-20.049 -9.905)" fill="#f7edd6"/>
  </g>
</svg>
