<svg xmlns="http://www.w3.org/2000/svg" width="71" height="56.677" viewBox="0 0 71 56.677">
  <g id="noun-group-1103544" transform="translate(-2.09 -11.756)">
    <g id="Group_1975" data-name="Group 1975" transform="translate(2.09 11.756)">
      <path id="Path_6419" data-name="Path 6419" d="M41.127,36.8c.537,2.165,2,3.713,3.607,3.875,1.782,5.809,5.723,10.681,11.771,10.681,6.088,0,10-4.834,11.765-10.677,1.63-.137,3.112-1.694,3.655-3.88a5.2,5.2,0,0,0-.746-4.544c1.72-7.789-.4-12.606-2.512-15.3a13.767,13.767,0,0,0-10.746-5.2c-3.75,0-6.907,1.627-8.4,4.284a10.282,10.282,0,0,0-6.613,4.63c-1.863,3.035-2.287,7.3-1.189,11.777A5.34,5.34,0,0,0,41.127,36.8Zm3.68-14.968A8.29,8.29,0,0,1,50.5,18.1a1.112,1.112,0,0,0,.788-.625c.988-2.156,3.53-3.494,6.633-3.494a11.526,11.526,0,0,1,9,4.355c2.678,3.406,3.353,8.257,1.953,14.03a1.112,1.112,0,0,0,.448,1.177,2.767,2.767,0,0,1,.446,2.724,3.993,3.993,0,0,1-.745,1.559c.119-.67.214-1.349.282-2.033a1.113,1.113,0,0,0-.355-.93l-.068-.062a1.111,1.111,0,0,0-1.857.714c-.653,6.78-4.159,13.621-10.52,13.621-6.186,0-9.727-6.612-10.491-13.164a1.1,1.1,0,0,0-1.037-.963l-.069,0a1.133,1.133,0,0,0-1.085.86,1.112,1.112,0,0,0-.026.4q.092.786.231,1.561a3.983,3.983,0,0,1-.745-1.559,2.907,2.907,0,0,1,.391-2.681,1.1,1.1,0,0,0,.217-.259c3.469-.739,8-3.326,9.878-7.04a11.148,11.148,0,0,0,8.814,3.7,1.112,1.112,0,0,0,1.072-1.149,1.125,1.125,0,0,0-1.149-1.072A8.461,8.461,0,0,1,54.456,23.3a1.112,1.112,0,0,0-2.1.29c-.583,3.522-4.853,6.623-8.646,7.5C43,27.534,43.388,24.147,44.807,21.833Z" transform="translate(-12.149 -11.756)" fill="#254895"/>
      <path id="Path_6420" data-name="Path 6420" d="M73.076,80.459a11.582,11.582,0,0,0-7.314-10.895l-1.018-.413c-2.6-1.052-7.451-3.009-9.064-4.214l-.059.079L46.451,72.2l-8.2-7.02-.1.113a62.738,62.738,0,0,1-7.419,3.167l-.911.349a30.387,30.387,0,0,1-4.948-2.425h0l-.011-.013L19,71.076l-5.048-4.41-.007.009-.007-.012a37,37,0,0,1-4.766,1.994c-.774.288-1.479.55-1.992.76A8.053,8.053,0,0,0,2.09,76.993v.931H4.313v-.931a5.867,5.867,0,0,1,3.7-5.52c.495-.2,1.175-.454,1.924-.732,1.233-.458,2.567-.955,3.654-1.432l5.34,4.664,6.12-4.9c.614.322,1.3.645,1.951.943a11.549,11.549,0,0,0-6.19,10.36v1.4h2.223v-1.4a9.393,9.393,0,0,1,5.932-8.837c.677-.276,1.571-.619,2.559-1,2.131-.816,4.658-1.782,6.466-2.65l8.393,7.188,9.476-7.428c2.276,1.231,5.766,2.642,8.046,3.563l1.01.41a9.4,9.4,0,0,1,5.932,8.846l.015,1.739,2.223-.019Z" transform="translate(-2.09 -25.531)" fill="#254895"/>
      <path id="Path_6421" data-name="Path 6421" d="M10.575,48.667a3.62,3.62,0,0,0,2.455,2.811c1.44,4.486,4.429,7.134,8.114,7.134,3.537,0,6.394-2.523,8.089-7.122a3.6,3.6,0,0,0,2.507-2.822,3.924,3.924,0,0,0-.456-3.2c1.1-5.211-.337-8.463-1.775-10.293a9.514,9.514,0,0,0-7.425-3.6,6.612,6.612,0,0,0-5.816,2.892,7.142,7.142,0,0,0-4.463,3.2,10.661,10.661,0,0,0-.871,7.94A4.007,4.007,0,0,0,10.575,48.667ZM13.7,38.838a5.141,5.141,0,0,1,3.535-2.307,1.112,1.112,0,0,0,.788-.625,4.27,4.27,0,0,1,4.062-2.1,7.273,7.273,0,0,1,5.678,2.748c1.7,2.167,2.128,5.276,1.226,8.992a1.113,1.113,0,0,0,.448,1.177,1.609,1.609,0,0,1,.146,1.409,1.8,1.8,0,0,1-.751,1.186,1.112,1.112,0,0,0-1.26.368,1.634,1.634,0,0,0-.25.54c-.774,2.3-2.608,6.163-6.178,6.163-4.2,0-5.815-4.831-6.209-6.312a1.084,1.084,0,0,0-1.051-.833,1.06,1.06,0,0,0-.364.065,2.093,2.093,0,0,1-.648-2.584,1,1,0,0,0,.114-.131,10.354,10.354,0,0,0,6.524-4.545c1.635,1.614,3.551,2.4,7.6,1.5a1.112,1.112,0,0,0-.486-2.17c-3.967.889-4.956-.072-6.647-2.151a1.112,1.112,0,0,0-1.959.519c-.333,2.014-2.779,3.9-5.069,4.574A8.157,8.157,0,0,1,13.7,38.838Z" transform="translate(-4.251 -16.891)" fill="#254895"/>
    </g>
  </g>
</svg>
