<svg xmlns="http://www.w3.org/2000/svg" xmlns:xlink="http://www.w3.org/1999/xlink" width="54.917" height="66.502" viewBox="0 0 54.917 66.502">
  <defs>
    <clipPath id="clip-path">
      <rect id="Rectangle_2597" data-name="Rectangle 2597" width="54.917" height="66.502" fill="#f7edd6"/>
    </clipPath>
  </defs>
  <g id="Group_1991" data-name="Group 1991" opacity="0.526">
    <g id="Group_1990" data-name="Group 1990" transform="translate(0 0)" clip-path="url(#clip-path)">
      <path id="Path_6443" data-name="Path 6443" d="M54.917,16.3a2,2,0,0,0-.484-1.18L40.7.535A1.718,1.718,0,0,0,38.278.469,1.767,1.767,0,0,0,38.21,2.9L49.231,14.587H1.716a1.716,1.716,0,0,0,0,3.433H49.231L38.21,29.711a1.8,1.8,0,0,0,.067,2.427,1.717,1.717,0,0,0,2.426-.067L54.433,17.483a1.525,1.525,0,0,0,.484-1.179" transform="translate(0 0.001)" fill="#f7edd6"/>
      <path id="Path_6444" data-name="Path 6444" d="M0,46.625a2,2,0,0,1,.484-1.18L14.214,30.856a1.718,1.718,0,0,1,2.426-.066,1.767,1.767,0,0,1,.067,2.427L5.685,44.908H53.2a1.716,1.716,0,0,1,0,3.433H5.685L16.706,60.032a1.8,1.8,0,0,1-.067,2.427,1.717,1.717,0,0,1-2.426-.067L.484,47.8A1.525,1.525,0,0,1,0,46.625" transform="translate(0 3.574)" fill="#f7edd6"/>
    </g>
  </g>
</svg>
