<svg xmlns="http://www.w3.org/2000/svg" width="12.51" height="12.5" viewBox="0 0 12.51 12.5">
  <g id="noun-storage-2890059" transform="translate(-11.013 -11)">
    <path id="Path_6440" data-name="Path 6440" d="M23.166,18.4a.3.3,0,0,0-.352.232,5.661,5.661,0,1,1-6.68-6.674.3.3,0,0,0-.119-.6,6.257,6.257,0,1,0,7.383,7.4.3.3,0,0,0-.232-.358Z" transform="translate(0 -0.253)" fill="#fabf38"/>
    <path id="Path_6441" data-name="Path 6441" d="M31.3,11a.3.3,0,0,0-.3.3v5.959a.3.3,0,0,0,.3.3h5.959a.3.3,0,0,0,.3-.3A6.257,6.257,0,0,0,31.3,11Zm.3.611h.146l.256.024.3.045.247.048.283.074c.08.024.161.045.238.072s.185.066.274.1.152.057.226.089.179.083.265.128.143.069.212.107.173.1.259.158l.191.119c.092.063.176.131.262.2s.107.077.161.122c.116.1.226.2.337.3.033.03.063.063.1.1a3.132,3.132,0,0,1,.3.337c.042.051.08.107.119.158s.137.173.2.265.077.125.116.188.11.173.161.262.072.137.107.206.089.179.128.271.06.149.089.22.072.188.1.283.048.152.072.232.051.191.074.3.033.161.048.241.033.2.045.3.018.167.024.25a1.21,1.21,0,0,1,0,.149H31.6Z" transform="translate(-14.032 0)" fill="#fabf38"/>
  </g>
</svg>
